<?xml version="1.0" encoding="utf-8"?>
<svg id="master-artboard" viewBox="0 0 1400 1000" version="1.1" xmlns="http://www.w3.org/2000/svg" x="0px" y="0px" width="1400px" height="1000px" enable-background="new 0 0 1400 1000">
<path d="M 184.500003 822.400024 A 15.2 44.400002 0 0 1 169.300003 866.800026 A 15.2 44.400002 0 0 1 154.100003 822.400024 A 15.2 44.400002 0 0 1 169.300003 778.000023 A 15.2 44.400002 0 0 1 184.500003 822.400024 Z" fill="#ACE388" transform="matrix(0.9999999999999999, 0, 0, 0.9999999999999999, -2.842170943040401e-14, 0)"/><path d="M 146.399997 822.400024 A 15.2 44.400002 0 0 1 131.199997 866.800026 A 15.2 44.400002 0 0 1 115.999997 822.400024 A 15.2 44.400002 0 0 1 131.199997 778.000023 A 15.2 44.400002 0 0 1 146.399997 822.400024 Z" fill="#ACE388" transform="matrix(0.9999999999999999, 0, 0, 0.9999999999999999, -2.842170943040401e-14, 0)"/><path fill="#7C7C7B" d="M1292.5,899.6H115.8c-0.6,0-1-0.4-1-1s0.4-1,1-1h1176.7c0.6,0,1,0.4,1,1S1293,899.6,1292.5,899.6z" transform="matrix(0.9999999999999999, 0, 0, 0.9999999999999999, -2.842170943040401e-14, 0)"/><path fill="#D4CFFF" d="M1295.7,537.3h-13.4c-1.1-3.4-4.3-5.9-8.1-5.9c-1.2,0-2.3,0.2-3.3,0.7c0.1-0.6,0.1-1.3,0.1-1.9&#10;&#9;&#9;&#9;c0-10.9-8.9-19.8-19.8-19.8c-9.4,0-17.2,6.5-19.3,15.3c-1-0.3-2.1-0.5-3.3-0.5c-2.3,0-4.4,0.6-6.1,1.8c-2.7-4.1-7.3-6.9-12.6-6.9&#10;&#9;&#9;&#9;c-8.3,0-15,6.7-15,15c0,0.8,0.1,1.5,0.2,2.2h-4.6c-4,0-7.2,3.2-7.2,7.2l0,0c0,4,3.2,7.2,7.2,7.2h105.3c4,0,7.2-3.2,7.2-7.2l0,0&#10;&#9;&#9;&#9;C1302.9,540.5,1299.7,537.3,1295.7,537.3z" transform="matrix(0.9999999999999999, 0, 0, 0.9999999999999999, -8.526512829121202e-14, 0)"/><path fill="#D4CFFF" d="M943.7,603.9h13.4c1.1-3.4,4.3-5.9,8.1-5.9c1.2,0,2.3,0.2,3.3,0.7c-0.1-0.6-0.1-1.3-0.1-1.9&#10;&#9;&#9;&#9;c0-10.9,8.9-19.8,19.8-19.8c9.4,0,17.2,6.5,19.3,15.3c1-0.3,2.1-0.5,3.3-0.5c2.3,0,4.4,0.6,6.1,1.8c2.7-4.1,7.3-6.9,12.6-6.9&#10;&#9;&#9;&#9;c8.3,0,15,6.7,15,15c0,0.8-0.1,1.5-0.2,2.2h4.6c4,0,7.2,3.2,7.2,7.2l0,0c0,4-3.2,7.2-7.2,7.2H943.7c-4,0-7.2-3.2-7.2-7.2l0,0&#10;&#9;&#9;&#9;C936.5,607.2,939.7,603.9,943.7,603.9z" transform="matrix(0.9999999999999999, 0, 0, 0.9999999999999999, -8.526512829121202e-14, 0)"/><path fill="#D4CFFF" d="M474.1,544.4h-20.3c-0.5-5-4.8-9-10-9h-18.7c-1.5-4.8-6-8.2-11.2-8.2c-1.6,0-3.2,0.3-4.6,0.9&#10;&#9;&#9;&#9;c0.1-0.9,0.1-1.8,0.1-2.7c0-15.2-12.3-27.5-27.5-27.5c-13,0-23.9,9.1-26.7,21.2c-1.4-0.4-3-0.7-4.6-0.7c-3.1,0-6.1,0.9-8.5,2.5&#10;&#9;&#9;&#9;c-3.7-5.7-10.1-9.5-17.5-9.5c-11.5,0-20.8,9.3-20.8,20.8c0,1.1,0.1,2.1,0.2,3.1h-6.4c-5.2,0-9.4,3.9-10,9h-9.1&#10;&#9;&#9;&#9;c-3.1,0-5.5,2.5-5.5,5.5s2.5,5.5,5.5,5.5h19.1h146.1h30.2c3.1,0,5.5-2.5,5.5-5.5S477.1,544.4,474.1,544.4z" transform="matrix(0.9999999999999999, 0, 0, 0.9999999999999999, -8.526512829121202e-14, 0)"/><path fill="#D4CFFF" d="M1189.6,672.8h-94.1c-3.4,0-6.2-2.8-6.2-6.2l0,0c0-3.4,2.8-6.2,6.2-6.2h94.1c3.4,0,6.2,2.8,6.2,6.2l0,0&#10;&#9;&#9;&#9;&#9;C1195.8,670,1193,672.8,1189.6,672.8z" transform="matrix(0.9999999999999999, 0, 0, 0.9999999999999999, -1.1368683772161603e-13, 0)"/><path fill="#D4CFFF" d="M1189.6,697.2h-94.1c-3.4,0-6.2-2.8-6.2-6.2v0c0-3.4,2.8-6.2,6.2-6.2h94.1c3.4,0,6.2,2.8,6.2,6.2v0&#10;&#9;&#9;&#9;&#9;C1195.8,694.4,1193,697.2,1189.6,697.2z" transform="matrix(0.9999999999999999, 0, 0, 0.9999999999999999, -1.1368683772161603e-13, 0)"/><path fill="#D4CFFF" d="M1189.6,721.5h-94.1c-3.4,0-6.2-2.8-6.2-6.2l0,0c0-3.4,2.8-6.2,6.2-6.2h94.1c3.4,0,6.2,2.8,6.2,6.2l0,0&#10;&#9;&#9;&#9;&#9;C1195.8,718.8,1193,721.5,1189.6,721.5z" transform="matrix(0.9999999999999999, 0, 0, 0.9999999999999999, -1.1368683772161603e-13, 0)"/><path fill="#D4CFFF" d="M1189.6,745.9h-94.1c-3.4,0-6.2-2.8-6.2-6.2l0,0c0-3.4,2.8-6.2,6.2-6.2h94.1c3.4,0,6.2,2.8,6.2,6.2l0,0&#10;&#9;&#9;&#9;&#9;C1195.8,743.1,1193,745.9,1189.6,745.9z" transform="matrix(0.9999999999999999, 0, 0, 0.9999999999999999, -1.1368683772161603e-13, 0)"/><path fill="#D4CFFF" d="M1189.6,770.3h-94.1c-3.4,0-6.2-2.8-6.2-6.2l0,0c0-3.4,2.8-6.2,6.2-6.2h94.1c3.4,0,6.2,2.8,6.2,6.2l0,0&#10;&#9;&#9;&#9;&#9;C1195.8,767.5,1193,770.3,1189.6,770.3z" transform="matrix(0.9999999999999999, 0, 0, 0.9999999999999999, -1.1368683772161603e-13, 0)"/><path fill="#D4CFFF" d="M1189.6,794.6h-94.1c-3.4,0-6.2-2.8-6.2-6.2l0,0c0-3.4,2.8-6.2,6.2-6.2h94.1c3.4,0,6.2,2.8,6.2,6.2l0,0&#10;&#9;&#9;&#9;&#9;C1195.8,791.8,1193,794.6,1189.6,794.6z" transform="matrix(0.9999999999999999, 0, 0, 0.9999999999999999, -1.1368683772161603e-13, 0)"/><path fill="#D4CFFF" d="M1189.6,819h-94.1c-3.4,0-6.2-2.8-6.2-6.2l0,0c0-3.4,2.8-6.2,6.2-6.2h94.1c3.4,0,6.2,2.8,6.2,6.2l0,0&#10;&#9;&#9;&#9;&#9;C1195.8,816.2,1193,819,1189.6,819z" transform="matrix(0.9999999999999999, 0, 0, 0.9999999999999999, -1.1368683772161603e-13, 0)"/><path fill="#D4CFFF" d="M1189.6,843.3h-94.1c-3.4,0-6.2-2.8-6.2-6.2l0,0c0-3.4,2.8-6.2,6.2-6.2h94.1c3.4,0,6.2,2.8,6.2,6.2l0,0&#10;&#9;&#9;&#9;&#9;C1195.8,840.5,1193,843.3,1189.6,843.3z" transform="matrix(0.9999999999999999, 0, 0, 0.9999999999999999, -1.1368683772161603e-13, 0)"/><path fill="#D4CFFF" d="M1189.6,867.7h-94.1c-3.4,0-6.2-2.8-6.2-6.2v0c0-3.4,2.8-6.2,6.2-6.2h94.1c3.4,0,6.2,2.8,6.2,6.2v0&#10;&#9;&#9;&#9;&#9;C1195.8,864.9,1193,867.7,1189.6,867.7z" transform="matrix(0.9999999999999999, 0, 0, 0.9999999999999999, -1.1368683772161603e-13, 0)"/><path fill="#D4CFFF" d="M1189.6,892h-94.1c-3.4,0-6.2-2.8-6.2-6.2l0,0c0-3.4,2.8-6.2,6.2-6.2h94.1c3.4,0,6.2,2.8,6.2,6.2l0,0&#10;&#9;&#9;&#9;&#9;C1195.8,889.3,1193,892,1189.6,892z" transform="matrix(0.9999999999999999, 0, 0, 0.9999999999999999, -1.1368683772161603e-13, 0)"/><path d="M 280.200012 737.299988 H 467.000015 V 774.299988 H 280.200012 V 737.299988 Z" fill="#D4CFFF" transform="matrix(0.9999999999999999, 0, 0, 0.9999999999999999, -8.526512829121202e-14, 0)"/><path d="M 280.200012 813.400024 H 467.000015 V 850.400024 H 280.200012 V 813.400024 Z" fill="#D4CFFF" transform="matrix(0.9999999999999999, 0, 0, 0.9999999999999999, -8.526512829121202e-14, 0)"/><path d="M 541.299988 857.299988 H 564.799988 V 897.199989 H 541.299988 V 857.299988 Z" fill="#D4CFFF" transform="matrix(0.9999999999999999, 0, 0, 0.9999999999999999, -8.526512829121202e-14, 0)"/><path d="M 541.299988 785.900024 H 564.799988 V 834.800026 H 541.299988 V 785.900024 Z" fill="#D4CFFF" transform="matrix(0.9999999999999999, 0, 0, 0.9999999999999999, -8.526512829121202e-14, 0)"/><path fill="#D4CFFF" d="M1211.6,632l-64.7-76.2V446.5c0-2.5-2-4.4-4.4-4.4s-4.4,2-4.4,4.4v109.3l-64.7,76.2H1211.6z" transform="matrix(0.9999999999999999, 0, 0, 0.9999999999999999, -8.526512829121202e-14, 0)"/><path d="M 862.599976 809.099976 H 1047.499969 V 826.799976 H 862.599976 V 809.099976 Z" fill="#D4CFFF" transform="matrix(0.9999999999999999, 0, 0, 0.9999999999999999, -8.526512829121202e-14, 0)"/><path d="M 955 648.0999755859375 L 859.7999877929688 728.9000244140625 L 1050.300048828125 728.9000244140625 Z" fill="#D4CFFF" transform="matrix(0.9999999999999999, 0, 0, 0.9999999999999999, -8.526512829121202e-14, 0)"/><path d="M 196.699997 643.900024 H 267.899994 V 664.800024 H 196.699997 V 643.900024 Z" fill="#D4CFFF" transform="matrix(0.9999999999999999, 0, 0, 0.9999999999999999, -1.1368683772161603e-13, 0)"/><path fill="#7C7C7B" d="M267.9,899.7h-71.2c-0.6,0-1-0.4-1-1v-242c0-0.6,0.4-1,1-1h71.2c0.6,0,1,0.4,1,1v242&#10;&#9;&#9;&#9;&#9;C268.9,899.3,268.4,899.7,267.9,899.7z M197.7,897.7h69.2v-240h-69.2V897.7z" transform="matrix(0.9999999999999999, 0, 0, 0.9999999999999999, -1.1368683772161603e-13, 0)"/><path fill="#7C7C7B" d="M267.9,657.7h-71.2c-0.6,0-1-0.4-1-1v-20.9c0-0.6,0.4-1,1-1h71.2c0.6,0,1,0.4,1,1v20.9&#10;&#9;&#9;&#9;&#9;C268.9,657.3,268.4,657.7,267.9,657.7z M197.7,655.7h69.2v-18.9h-69.2V655.7z" transform="matrix(0.9999999999999999, 0, 0, 0.9999999999999999, -1.1368683772161603e-13, 0)"/><path fill="#7C7C7B" d="M260.4,637h-56.3c-0.6,0-1-0.4-1-1v-20.9c0-0.6,0.4-1,1-1h56.3c0.6,0,1,0.4,1,1V636&#10;&#9;&#9;&#9;&#9;C261.4,636.5,261,637,260.4,637z M205.1,635h54.3v-18.9h-54.3V635z" transform="matrix(0.9999999999999999, 0, 0, 0.9999999999999999, -1.1368683772161603e-13, 0)"/><path fill="#7C7C7B" d="M235.3,616.2h-6.1c-0.6,0-1-0.4-1-1v-95.1c0-2.2,1.8-4,4-4s4,1.8,4,4v95.1&#10;&#9;&#9;&#9;&#9;C236.3,615.8,235.9,616.2,235.3,616.2z M230.2,614.2h4.1v-94.1c0-1.1-0.9-2-2-2s-2,0.9-2,2V614.2z" transform="matrix(0.9999999999999999, 0, 0, 0.9999999999999999, -1.1368683772161603e-13, 0)"/><path fill="#7C7C7B" d="M216.7,679.6h-9.8c-0.6,0-1-0.4-1-1v-9.8c0-0.6,0.4-1,1-1h9.8c0.6,0,1,0.4,1,1v9.8&#10;&#9;&#9;&#9;&#9;&#9;C217.7,679.2,217.2,679.6,216.7,679.6z M207.9,677.6h7.8v-7.8h-7.8V677.6z" transform="matrix(0.9999999999999999, 0, 0, 0.9999999999999999, -1.4210854715202004e-13, 0)"/><path fill="#7C7C7B" d="M230.3,679.6h-9.8c-0.6,0-1-0.4-1-1v-9.8c0-0.6,0.4-1,1-1h9.8c0.6,0,1,0.4,1,1v9.8&#10;&#9;&#9;&#9;&#9;&#9;C231.3,679.2,230.9,679.6,230.3,679.6z M221.6,677.6h7.8v-7.8h-7.8V677.6z" transform="matrix(0.9999999999999999, 0, 0, 0.9999999999999999, -1.4210854715202004e-13, 0)"/><path fill="#7C7C7B" d="M244,679.6h-9.8c-0.6,0-1-0.4-1-1v-9.8c0-0.6,0.4-1,1-1h9.8c0.6,0,1,0.4,1,1v9.8&#10;&#9;&#9;&#9;&#9;&#9;C245,679.2,244.5,679.6,244,679.6z M235.2,677.6h7.8v-7.8h-7.8V677.6z" transform="matrix(0.9999999999999999, 0, 0, 0.9999999999999999, -1.4210854715202004e-13, 0)"/><path fill="#7C7C7B" d="M257.6,679.6h-9.8c-0.6,0-1-0.4-1-1v-9.8c0-0.6,0.4-1,1-1h9.8c0.6,0,1,0.4,1,1v9.8&#10;&#9;&#9;&#9;&#9;&#9;C258.6,679.2,258.2,679.6,257.6,679.6z M248.9,677.6h7.8v-7.8h-7.8V677.6z" transform="matrix(0.9999999999999999, 0, 0, 0.9999999999999999, -1.4210854715202004e-13, 0)"/><path fill="#7C7C7B" d="M216.7,692.8h-9.8c-0.6,0-1-0.4-1-1v-9.8c0-0.6,0.4-1,1-1h9.8c0.6,0,1,0.4,1,1v9.8&#10;&#9;&#9;&#9;&#9;&#9;C217.7,692.4,217.2,692.8,216.7,692.8z M207.9,690.8h7.8v-7.8h-7.8V690.8z" transform="matrix(0.9999999999999999, 0, 0, 0.9999999999999999, -1.4210854715202004e-13, 0)"/><path fill="#7C7C7B" d="M230.3,692.8h-9.8c-0.6,0-1-0.4-1-1v-9.8c0-0.6,0.4-1,1-1h9.8c0.6,0,1,0.4,1,1v9.8&#10;&#9;&#9;&#9;&#9;&#9;C231.3,692.4,230.9,692.8,230.3,692.8z M221.6,690.8h7.8v-7.8h-7.8V690.8z" transform="matrix(0.9999999999999999, 0, 0, 0.9999999999999999, -1.4210854715202004e-13, 0)"/><path fill="#7C7C7B" d="M244,692.8h-9.8c-0.6,0-1-0.4-1-1v-9.8c0-0.6,0.4-1,1-1h9.8c0.6,0,1,0.4,1,1v9.8&#10;&#9;&#9;&#9;&#9;&#9;C245,692.4,244.5,692.8,244,692.8z M235.2,690.8h7.8v-7.8h-7.8V690.8z" transform="matrix(0.9999999999999999, 0, 0, 0.9999999999999999, -1.4210854715202004e-13, 0)"/><path fill="#7C7C7B" d="M257.6,692.8h-9.8c-0.6,0-1-0.4-1-1v-9.8c0-0.6,0.4-1,1-1h9.8c0.6,0,1,0.4,1,1v9.8&#10;&#9;&#9;&#9;&#9;&#9;C258.6,692.4,258.2,692.8,257.6,692.8z M248.9,690.8h7.8v-7.8h-7.8V690.8z" transform="matrix(0.9999999999999999, 0, 0, 0.9999999999999999, -1.4210854715202004e-13, 0)"/><path fill="#7C7C7B" d="M216.7,706.1h-9.8c-0.6,0-1-0.4-1-1v-9.8c0-0.6,0.4-1,1-1h9.8c0.6,0,1,0.4,1,1v9.8&#10;&#9;&#9;&#9;&#9;&#9;C217.7,705.6,217.2,706.1,216.7,706.1z M207.9,704.1h7.8v-7.8h-7.8V704.1z" transform="matrix(0.9999999999999999, 0, 0, 0.9999999999999999, -1.4210854715202004e-13, 0)"/><path fill="#7C7C7B" d="M230.3,706.1h-9.8c-0.6,0-1-0.4-1-1v-9.8c0-0.6,0.4-1,1-1h9.8c0.6,0,1,0.4,1,1v9.8&#10;&#9;&#9;&#9;&#9;&#9;C231.3,705.6,230.9,706.1,230.3,706.1z M221.6,704.1h7.8v-7.8h-7.8V704.1z" transform="matrix(0.9999999999999999, 0, 0, 0.9999999999999999, -1.4210854715202004e-13, 0)"/><path fill="#7C7C7B" d="M244,706.1h-9.8c-0.6,0-1-0.4-1-1v-9.8c0-0.6,0.4-1,1-1h9.8c0.6,0,1,0.4,1,1v9.8&#10;&#9;&#9;&#9;&#9;&#9;C245,705.6,244.5,706.1,244,706.1z M235.2,704.1h7.8v-7.8h-7.8V704.1z" transform="matrix(0.9999999999999999, 0, 0, 0.9999999999999999, -1.4210854715202004e-13, 0)"/><path fill="#7C7C7B" d="M257.6,706.1h-9.8c-0.6,0-1-0.4-1-1v-9.8c0-0.6,0.4-1,1-1h9.8c0.6,0,1,0.4,1,1v9.8&#10;&#9;&#9;&#9;&#9;&#9;C258.6,705.6,258.2,706.1,257.6,706.1z M248.9,704.1h7.8v-7.8h-7.8V704.1z" transform="matrix(0.9999999999999999, 0, 0, 0.9999999999999999, -1.4210854715202004e-13, 0)"/><path fill="#7C7C7B" d="M216.7,719.3h-9.8c-0.6,0-1-0.4-1-1v-9.8c0-0.6,0.4-1,1-1h9.8c0.6,0,1,0.4,1,1v9.8&#10;&#9;&#9;&#9;&#9;&#9;C217.7,718.8,217.2,719.3,216.7,719.3z M207.9,717.3h7.8v-7.8h-7.8V717.3z" transform="matrix(0.9999999999999999, 0, 0, 0.9999999999999999, -1.4210854715202004e-13, 0)"/><path fill="#7C7C7B" d="M230.3,719.3h-9.8c-0.6,0-1-0.4-1-1v-9.8c0-0.6,0.4-1,1-1h9.8c0.6,0,1,0.4,1,1v9.8&#10;&#9;&#9;&#9;&#9;&#9;C231.3,718.8,230.9,719.3,230.3,719.3z M221.6,717.3h7.8v-7.8h-7.8V717.3z" transform="matrix(0.9999999999999999, 0, 0, 0.9999999999999999, -1.4210854715202004e-13, 0)"/><path fill="#7C7C7B" d="M244,719.3h-9.8c-0.6,0-1-0.4-1-1v-9.8c0-0.6,0.4-1,1-1h9.8c0.6,0,1,0.4,1,1v9.8&#10;&#9;&#9;&#9;&#9;&#9;C245,718.8,244.5,719.3,244,719.3z M235.2,717.3h7.8v-7.8h-7.8V717.3z" transform="matrix(0.9999999999999999, 0, 0, 0.9999999999999999, -1.4210854715202004e-13, 0)"/><path fill="#7C7C7B" d="M257.6,719.3h-9.8c-0.6,0-1-0.4-1-1v-9.8c0-0.6,0.4-1,1-1h9.8c0.6,0,1,0.4,1,1v9.8&#10;&#9;&#9;&#9;&#9;&#9;C258.6,718.8,258.2,719.3,257.6,719.3z M248.9,717.3h7.8v-7.8h-7.8V717.3z" transform="matrix(0.9999999999999999, 0, 0, 0.9999999999999999, -1.4210854715202004e-13, 0)"/><path fill="#7C7C7B" d="M216.7,732.5h-9.8c-0.6,0-1-0.4-1-1v-9.8c0-0.6,0.4-1,1-1h9.8c0.6,0,1,0.4,1,1v9.8&#10;&#9;&#9;&#9;&#9;&#9;C217.7,732.1,217.2,732.5,216.7,732.5z M207.9,730.5h7.8v-7.8h-7.8V730.5z" transform="matrix(0.9999999999999999, 0, 0, 0.9999999999999999, -1.4210854715202004e-13, 0)"/><path fill="#7C7C7B" d="M230.3,732.5h-9.8c-0.6,0-1-0.4-1-1v-9.8c0-0.6,0.4-1,1-1h9.8c0.6,0,1,0.4,1,1v9.8&#10;&#9;&#9;&#9;&#9;&#9;C231.3,732.1,230.9,732.5,230.3,732.5z M221.6,730.5h7.8v-7.8h-7.8V730.5z" transform="matrix(0.9999999999999999, 0, 0, 0.9999999999999999, -1.4210854715202004e-13, 0)"/><path fill="#7C7C7B" d="M244,732.5h-9.8c-0.6,0-1-0.4-1-1v-9.8c0-0.6,0.4-1,1-1h9.8c0.6,0,1,0.4,1,1v9.8&#10;&#9;&#9;&#9;&#9;&#9;C245,732.1,244.5,732.5,244,732.5z M235.2,730.5h7.8v-7.8h-7.8V730.5z" transform="matrix(0.9999999999999999, 0, 0, 0.9999999999999999, -1.4210854715202004e-13, 0)"/><path fill="#7C7C7B" d="M257.6,732.5h-9.8c-0.6,0-1-0.4-1-1v-9.8c0-0.6,0.4-1,1-1h9.8c0.6,0,1,0.4,1,1v9.8&#10;&#9;&#9;&#9;&#9;&#9;C258.6,732.1,258.2,732.5,257.6,732.5z M248.9,730.5h7.8v-7.8h-7.8V730.5z" transform="matrix(0.9999999999999999, 0, 0, 0.9999999999999999, -1.4210854715202004e-13, 0)"/><path fill="#7C7C7B" d="M216.7,745.7h-9.8c-0.6,0-1-0.4-1-1V735c0-0.6,0.4-1,1-1h9.8c0.6,0,1,0.4,1,1v9.8&#10;&#9;&#9;&#9;&#9;&#9;C217.7,745.3,217.2,745.7,216.7,745.7z M207.9,743.7h7.8V736h-7.8V743.7z" transform="matrix(0.9999999999999999, 0, 0, 0.9999999999999999, -1.4210854715202004e-13, 0)"/><path fill="#7C7C7B" d="M230.3,745.7h-9.8c-0.6,0-1-0.4-1-1V735c0-0.6,0.4-1,1-1h9.8c0.6,0,1,0.4,1,1v9.8&#10;&#9;&#9;&#9;&#9;&#9;C231.3,745.3,230.9,745.7,230.3,745.7z M221.6,743.7h7.8V736h-7.8V743.7z" transform="matrix(0.9999999999999999, 0, 0, 0.9999999999999999, -1.4210854715202004e-13, 0)"/><path fill="#7C7C7B" d="M244,745.7h-9.8c-0.6,0-1-0.4-1-1V735c0-0.6,0.4-1,1-1h9.8c0.6,0,1,0.4,1,1v9.8&#10;&#9;&#9;&#9;&#9;&#9;C245,745.3,244.5,745.7,244,745.7z M235.2,743.7h7.8V736h-7.8V743.7z" transform="matrix(0.9999999999999999, 0, 0, 0.9999999999999999, -1.4210854715202004e-13, 0)"/><path fill="#7C7C7B" d="M257.6,745.7h-9.8c-0.6,0-1-0.4-1-1V735c0-0.6,0.4-1,1-1h9.8c0.6,0,1,0.4,1,1v9.8&#10;&#9;&#9;&#9;&#9;&#9;C258.6,745.3,258.2,745.7,257.6,745.7z M248.9,743.7h7.8V736h-7.8V743.7z" transform="matrix(0.9999999999999999, 0, 0, 0.9999999999999999, -1.4210854715202004e-13, 0)"/><path fill="#7C7C7B" d="M216.7,758.9h-9.8c-0.6,0-1-0.4-1-1v-9.8c0-0.6,0.4-1,1-1h9.8c0.6,0,1,0.4,1,1v9.8&#10;&#9;&#9;&#9;&#9;&#9;C217.7,758.5,217.2,758.9,216.7,758.9z M207.9,756.9h7.8v-7.8h-7.8V756.9z" transform="matrix(0.9999999999999999, 0, 0, 0.9999999999999999, -1.4210854715202004e-13, 0)"/><path fill="#7C7C7B" d="M230.3,758.9h-9.8c-0.6,0-1-0.4-1-1v-9.8c0-0.6,0.4-1,1-1h9.8c0.6,0,1,0.4,1,1v9.8&#10;&#9;&#9;&#9;&#9;&#9;C231.3,758.5,230.9,758.9,230.3,758.9z M221.6,756.9h7.8v-7.8h-7.8V756.9z" transform="matrix(0.9999999999999999, 0, 0, 0.9999999999999999, -1.4210854715202004e-13, 0)"/><path fill="#7C7C7B" d="M244,758.9h-9.8c-0.6,0-1-0.4-1-1v-9.8c0-0.6,0.4-1,1-1h9.8c0.6,0,1,0.4,1,1v9.8&#10;&#9;&#9;&#9;&#9;&#9;C245,758.5,244.5,758.9,244,758.9z M235.2,756.9h7.8v-7.8h-7.8V756.9z" transform="matrix(0.9999999999999999, 0, 0, 0.9999999999999999, -1.4210854715202004e-13, 0)"/><path fill="#7C7C7B" d="M257.6,758.9h-9.8c-0.6,0-1-0.4-1-1v-9.8c0-0.6,0.4-1,1-1h9.8c0.6,0,1,0.4,1,1v9.8&#10;&#9;&#9;&#9;&#9;&#9;C258.6,758.5,258.2,758.9,257.6,758.9z M248.9,756.9h7.8v-7.8h-7.8V756.9z" transform="matrix(0.9999999999999999, 0, 0, 0.9999999999999999, -1.4210854715202004e-13, 0)"/><path fill="#7C7C7B" d="M216.7,772.2h-9.8c-0.6,0-1-0.4-1-1v-9.8c0-0.6,0.4-1,1-1h9.8c0.6,0,1,0.4,1,1v9.8&#10;&#9;&#9;&#9;&#9;&#9;C217.7,771.7,217.2,772.2,216.7,772.2z M207.9,770.2h7.8v-7.8h-7.8V770.2z" transform="matrix(0.9999999999999999, 0, 0, 0.9999999999999999, -1.4210854715202004e-13, 0)"/><path fill="#7C7C7B" d="M230.3,772.2h-9.8c-0.6,0-1-0.4-1-1v-9.8c0-0.6,0.4-1,1-1h9.8c0.6,0,1,0.4,1,1v9.8&#10;&#9;&#9;&#9;&#9;&#9;C231.3,771.7,230.9,772.2,230.3,772.2z M221.6,770.2h7.8v-7.8h-7.8V770.2z" transform="matrix(0.9999999999999999, 0, 0, 0.9999999999999999, -1.4210854715202004e-13, 0)"/><path fill="#7C7C7B" d="M244,772.2h-9.8c-0.6,0-1-0.4-1-1v-9.8c0-0.6,0.4-1,1-1h9.8c0.6,0,1,0.4,1,1v9.8&#10;&#9;&#9;&#9;&#9;&#9;C245,771.7,244.5,772.2,244,772.2z M235.2,770.2h7.8v-7.8h-7.8V770.2z" transform="matrix(0.9999999999999999, 0, 0, 0.9999999999999999, -1.4210854715202004e-13, 0)"/><path fill="#7C7C7B" d="M257.6,772.2h-9.8c-0.6,0-1-0.4-1-1v-9.8c0-0.6,0.4-1,1-1h9.8c0.6,0,1,0.4,1,1v9.8&#10;&#9;&#9;&#9;&#9;&#9;C258.6,771.7,258.2,772.2,257.6,772.2z M248.9,770.2h7.8v-7.8h-7.8V770.2z" transform="matrix(0.9999999999999999, 0, 0, 0.9999999999999999, -1.4210854715202004e-13, 0)"/><path fill="#7C7C7B" d="M216.7,785.4h-9.8c-0.6,0-1-0.4-1-1v-9.8c0-0.6,0.4-1,1-1h9.8c0.6,0,1,0.4,1,1v9.8&#10;&#9;&#9;&#9;&#9;&#9;C217.7,784.9,217.2,785.4,216.7,785.4z M207.9,783.4h7.8v-7.8h-7.8V783.4z" transform="matrix(0.9999999999999999, 0, 0, 0.9999999999999999, -1.4210854715202004e-13, 0)"/><path fill="#7C7C7B" d="M230.3,785.4h-9.8c-0.6,0-1-0.4-1-1v-9.8c0-0.6,0.4-1,1-1h9.8c0.6,0,1,0.4,1,1v9.8&#10;&#9;&#9;&#9;&#9;&#9;C231.3,784.9,230.9,785.4,230.3,785.4z M221.6,783.4h7.8v-7.8h-7.8V783.4z" transform="matrix(0.9999999999999999, 0, 0, 0.9999999999999999, -1.4210854715202004e-13, 0)"/><path fill="#7C7C7B" d="M244,785.4h-9.8c-0.6,0-1-0.4-1-1v-9.8c0-0.6,0.4-1,1-1h9.8c0.6,0,1,0.4,1,1v9.8&#10;&#9;&#9;&#9;&#9;&#9;C245,784.9,244.5,785.4,244,785.4z M235.2,783.4h7.8v-7.8h-7.8V783.4z" transform="matrix(0.9999999999999999, 0, 0, 0.9999999999999999, -1.4210854715202004e-13, 0)"/><path fill="#7C7C7B" d="M257.6,785.4h-9.8c-0.6,0-1-0.4-1-1v-9.8c0-0.6,0.4-1,1-1h9.8c0.6,0,1,0.4,1,1v9.8&#10;&#9;&#9;&#9;&#9;&#9;C258.6,784.9,258.2,785.4,257.6,785.4z M248.9,783.4h7.8v-7.8h-7.8V783.4z" transform="matrix(0.9999999999999999, 0, 0, 0.9999999999999999, -1.4210854715202004e-13, 0)"/><path fill="#7C7C7B" d="M216.7,798.6h-9.8c-0.6,0-1-0.4-1-1v-9.8c0-0.6,0.4-1,1-1h9.8c0.6,0,1,0.4,1,1v9.8&#10;&#9;&#9;&#9;&#9;&#9;C217.7,798.2,217.2,798.6,216.7,798.6z M207.9,796.6h7.8v-7.8h-7.8V796.6z" transform="matrix(0.9999999999999999, 0, 0, 0.9999999999999999, -1.4210854715202004e-13, 0)"/><path fill="#7C7C7B" d="M230.3,798.6h-9.8c-0.6,0-1-0.4-1-1v-9.8c0-0.6,0.4-1,1-1h9.8c0.6,0,1,0.4,1,1v9.8&#10;&#9;&#9;&#9;&#9;&#9;C231.3,798.2,230.9,798.6,230.3,798.6z M221.6,796.6h7.8v-7.8h-7.8V796.6z" transform="matrix(0.9999999999999999, 0, 0, 0.9999999999999999, -1.4210854715202004e-13, 0)"/><path fill="#7C7C7B" d="M244,798.6h-9.8c-0.6,0-1-0.4-1-1v-9.8c0-0.6,0.4-1,1-1h9.8c0.6,0,1,0.4,1,1v9.8&#10;&#9;&#9;&#9;&#9;&#9;C245,798.2,244.5,798.6,244,798.6z M235.2,796.6h7.8v-7.8h-7.8V796.6z" transform="matrix(0.9999999999999999, 0, 0, 0.9999999999999999, -1.4210854715202004e-13, 0)"/><path fill="#7C7C7B" d="M257.6,798.6h-9.8c-0.6,0-1-0.4-1-1v-9.8c0-0.6,0.4-1,1-1h9.8c0.6,0,1,0.4,1,1v9.8&#10;&#9;&#9;&#9;&#9;&#9;C258.6,798.2,258.2,798.6,257.6,798.6z M248.9,796.6h7.8v-7.8h-7.8V796.6z" transform="matrix(0.9999999999999999, 0, 0, 0.9999999999999999, -1.4210854715202004e-13, 0)"/><path fill="#7C7C7B" d="M216.7,811.8h-9.8c-0.6,0-1-0.4-1-1v-9.8c0-0.6,0.4-1,1-1h9.8c0.6,0,1,0.4,1,1v9.8&#10;&#9;&#9;&#9;&#9;&#9;C217.7,811.4,217.2,811.8,216.7,811.8z M207.9,809.8h7.8v-7.8h-7.8V809.8z" transform="matrix(0.9999999999999999, 0, 0, 0.9999999999999999, -1.4210854715202004e-13, 0)"/><path fill="#7C7C7B" d="M230.3,811.8h-9.8c-0.6,0-1-0.4-1-1v-9.8c0-0.6,0.4-1,1-1h9.8c0.6,0,1,0.4,1,1v9.8&#10;&#9;&#9;&#9;&#9;&#9;C231.3,811.4,230.9,811.8,230.3,811.8z M221.6,809.8h7.8v-7.8h-7.8V809.8z" transform="matrix(0.9999999999999999, 0, 0, 0.9999999999999999, -1.4210854715202004e-13, 0)"/><path fill="#7C7C7B" d="M244,811.8h-9.8c-0.6,0-1-0.4-1-1v-9.8c0-0.6,0.4-1,1-1h9.8c0.6,0,1,0.4,1,1v9.8&#10;&#9;&#9;&#9;&#9;&#9;C245,811.4,244.5,811.8,244,811.8z M235.2,809.8h7.8v-7.8h-7.8V809.8z" transform="matrix(0.9999999999999999, 0, 0, 0.9999999999999999, -1.4210854715202004e-13, 0)"/><path fill="#7C7C7B" d="M257.6,811.8h-9.8c-0.6,0-1-0.4-1-1v-9.8c0-0.6,0.4-1,1-1h9.8c0.6,0,1,0.4,1,1v9.8&#10;&#9;&#9;&#9;&#9;&#9;C258.6,811.4,258.2,811.8,257.6,811.8z M248.9,809.8h7.8v-7.8h-7.8V809.8z" transform="matrix(0.9999999999999999, 0, 0, 0.9999999999999999, -1.4210854715202004e-13, 0)"/><path fill="#7C7C7B" d="M216.7,825.1h-9.8c-0.6,0-1-0.4-1-1v-9.8c0-0.6,0.4-1,1-1h9.8c0.6,0,1,0.4,1,1v9.8&#10;&#9;&#9;&#9;&#9;&#9;C217.7,824.6,217.2,825.1,216.7,825.1z M207.9,823.1h7.8v-7.8h-7.8V823.1z" transform="matrix(0.9999999999999999, 0, 0, 0.9999999999999999, -1.4210854715202004e-13, 0)"/><path fill="#7C7C7B" d="M230.3,825.1h-9.8c-0.6,0-1-0.4-1-1v-9.8c0-0.6,0.4-1,1-1h9.8c0.6,0,1,0.4,1,1v9.8&#10;&#9;&#9;&#9;&#9;&#9;C231.3,824.6,230.9,825.1,230.3,825.1z M221.6,823.1h7.8v-7.8h-7.8V823.1z" transform="matrix(0.9999999999999999, 0, 0, 0.9999999999999999, -1.4210854715202004e-13, 0)"/><path fill="#7C7C7B" d="M244,825.1h-9.8c-0.6,0-1-0.4-1-1v-9.8c0-0.6,0.4-1,1-1h9.8c0.6,0,1,0.4,1,1v9.8&#10;&#9;&#9;&#9;&#9;&#9;C245,824.6,244.5,825.1,244,825.1z M235.2,823.1h7.8v-7.8h-7.8V823.1z" transform="matrix(0.9999999999999999, 0, 0, 0.9999999999999999, -1.4210854715202004e-13, 0)"/><path fill="#7C7C7B" d="M257.6,825.1h-9.8c-0.6,0-1-0.4-1-1v-9.8c0-0.6,0.4-1,1-1h9.8c0.6,0,1,0.4,1,1v9.8&#10;&#9;&#9;&#9;&#9;&#9;C258.6,824.6,258.2,825.1,257.6,825.1z M248.9,823.1h7.8v-7.8h-7.8V823.1z" transform="matrix(0.9999999999999999, 0, 0, 0.9999999999999999, -1.4210854715202004e-13, 0)"/><path fill="#7C7C7B" d="M216.7,838.3h-9.8c-0.6,0-1-0.4-1-1v-9.8c0-0.6,0.4-1,1-1h9.8c0.6,0,1,0.4,1,1v9.8&#10;&#9;&#9;&#9;&#9;&#9;C217.7,837.8,217.2,838.3,216.7,838.3z M207.9,836.3h7.8v-7.8h-7.8V836.3z" transform="matrix(0.9999999999999999, 0, 0, 0.9999999999999999, -1.4210854715202004e-13, 0)"/><path fill="#7C7C7B" d="M230.3,838.3h-9.8c-0.6,0-1-0.4-1-1v-9.8c0-0.6,0.4-1,1-1h9.8c0.6,0,1,0.4,1,1v9.8&#10;&#9;&#9;&#9;&#9;&#9;C231.3,837.8,230.9,838.3,230.3,838.3z M221.6,836.3h7.8v-7.8h-7.8V836.3z" transform="matrix(0.9999999999999999, 0, 0, 0.9999999999999999, -1.4210854715202004e-13, 0)"/><path fill="#7C7C7B" d="M244,838.3h-9.8c-0.6,0-1-0.4-1-1v-9.8c0-0.6,0.4-1,1-1h9.8c0.6,0,1,0.4,1,1v9.8&#10;&#9;&#9;&#9;&#9;&#9;C245,837.8,244.5,838.3,244,838.3z M235.2,836.3h7.8v-7.8h-7.8V836.3z" transform="matrix(0.9999999999999999, 0, 0, 0.9999999999999999, -1.4210854715202004e-13, 0)"/><path fill="#7C7C7B" d="M257.6,838.3h-9.8c-0.6,0-1-0.4-1-1v-9.8c0-0.6,0.4-1,1-1h9.8c0.6,0,1,0.4,1,1v9.8&#10;&#9;&#9;&#9;&#9;&#9;C258.6,837.8,258.2,838.3,257.6,838.3z M248.9,836.3h7.8v-7.8h-7.8V836.3z" transform="matrix(0.9999999999999999, 0, 0, 0.9999999999999999, -1.4210854715202004e-13, 0)"/><path fill="#7C7C7B" d="M216.7,851.5h-9.8c-0.6,0-1-0.4-1-1v-9.8c0-0.6,0.4-1,1-1h9.8c0.6,0,1,0.4,1,1v9.8&#10;&#9;&#9;&#9;&#9;&#9;C217.7,851.1,217.2,851.5,216.7,851.5z M207.9,849.5h7.8v-7.8h-7.8V849.5z" transform="matrix(0.9999999999999999, 0, 0, 0.9999999999999999, -1.4210854715202004e-13, 0)"/><path fill="#7C7C7B" d="M230.3,851.5h-9.8c-0.6,0-1-0.4-1-1v-9.8c0-0.6,0.4-1,1-1h9.8c0.6,0,1,0.4,1,1v9.8&#10;&#9;&#9;&#9;&#9;&#9;C231.3,851.1,230.9,851.5,230.3,851.5z M221.6,849.5h7.8v-7.8h-7.8V849.5z" transform="matrix(0.9999999999999999, 0, 0, 0.9999999999999999, -1.4210854715202004e-13, 0)"/><path fill="#7C7C7B" d="M244,851.5h-9.8c-0.6,0-1-0.4-1-1v-9.8c0-0.6,0.4-1,1-1h9.8c0.6,0,1,0.4,1,1v9.8&#10;&#9;&#9;&#9;&#9;&#9;C245,851.1,244.5,851.5,244,851.5z M235.2,849.5h7.8v-7.8h-7.8V849.5z" transform="matrix(0.9999999999999999, 0, 0, 0.9999999999999999, -1.4210854715202004e-13, 0)"/><path fill="#7C7C7B" d="M257.6,851.5h-9.8c-0.6,0-1-0.4-1-1v-9.8c0-0.6,0.4-1,1-1h9.8c0.6,0,1,0.4,1,1v9.8&#10;&#9;&#9;&#9;&#9;&#9;C258.6,851.1,258.2,851.5,257.6,851.5z M248.9,849.5h7.8v-7.8h-7.8V849.5z" transform="matrix(0.9999999999999999, 0, 0, 0.9999999999999999, -1.4210854715202004e-13, 0)"/><path fill="#7C7C7B" d="M216.7,864.7h-9.8c-0.6,0-1-0.4-1-1V854c0-0.6,0.4-1,1-1h9.8c0.6,0,1,0.4,1,1v9.8&#10;&#9;&#9;&#9;&#9;&#9;C217.7,864.3,217.2,864.7,216.7,864.7z M207.9,862.7h7.8V855h-7.8V862.7z" transform="matrix(0.9999999999999999, 0, 0, 0.9999999999999999, -1.4210854715202004e-13, 0)"/><path fill="#7C7C7B" d="M230.3,864.7h-9.8c-0.6,0-1-0.4-1-1V854c0-0.6,0.4-1,1-1h9.8c0.6,0,1,0.4,1,1v9.8&#10;&#9;&#9;&#9;&#9;&#9;C231.3,864.3,230.9,864.7,230.3,864.7z M221.6,862.7h7.8V855h-7.8V862.7z" transform="matrix(0.9999999999999999, 0, 0, 0.9999999999999999, -1.4210854715202004e-13, 0)"/><path fill="#7C7C7B" d="M244,864.7h-9.8c-0.6,0-1-0.4-1-1V854c0-0.6,0.4-1,1-1h9.8c0.6,0,1,0.4,1,1v9.8&#10;&#9;&#9;&#9;&#9;&#9;C245,864.3,244.5,864.7,244,864.7z M235.2,862.7h7.8V855h-7.8V862.7z" transform="matrix(0.9999999999999999, 0, 0, 0.9999999999999999, -1.4210854715202004e-13, 0)"/><path fill="#7C7C7B" d="M257.6,864.7h-9.8c-0.6,0-1-0.4-1-1V854c0-0.6,0.4-1,1-1h9.8c0.6,0,1,0.4,1,1v9.8&#10;&#9;&#9;&#9;&#9;&#9;C258.6,864.3,258.2,864.7,257.6,864.7z M248.9,862.7h7.8V855h-7.8V862.7z" transform="matrix(0.9999999999999999, 0, 0, 0.9999999999999999, -1.4210854715202004e-13, 0)"/><path fill="#7C7C7B" d="M216.7,877.9h-9.8c-0.6,0-1-0.4-1-1v-9.8c0-0.6,0.4-1,1-1h9.8c0.6,0,1,0.4,1,1v9.8&#10;&#9;&#9;&#9;&#9;&#9;C217.7,877.5,217.2,877.9,216.7,877.9z M207.9,875.9h7.8v-7.8h-7.8V875.9z" transform="matrix(0.9999999999999999, 0, 0, 0.9999999999999999, -1.4210854715202004e-13, 0)"/><path fill="#7C7C7B" d="M230.3,877.9h-9.8c-0.6,0-1-0.4-1-1v-9.8c0-0.6,0.4-1,1-1h9.8c0.6,0,1,0.4,1,1v9.8&#10;&#9;&#9;&#9;&#9;&#9;C231.3,877.5,230.9,877.9,230.3,877.9z M221.6,875.9h7.8v-7.8h-7.8V875.9z" transform="matrix(0.9999999999999999, 0, 0, 0.9999999999999999, -1.4210854715202004e-13, 0)"/><path fill="#7C7C7B" d="M244,877.9h-9.8c-0.6,0-1-0.4-1-1v-9.8c0-0.6,0.4-1,1-1h9.8c0.6,0,1,0.4,1,1v9.8&#10;&#9;&#9;&#9;&#9;&#9;C245,877.5,244.5,877.9,244,877.9z M235.2,875.9h7.8v-7.8h-7.8V875.9z" transform="matrix(0.9999999999999999, 0, 0, 0.9999999999999999, -1.4210854715202004e-13, 0)"/><path fill="#7C7C7B" d="M257.6,877.9h-9.8c-0.6,0-1-0.4-1-1v-9.8c0-0.6,0.4-1,1-1h9.8c0.6,0,1,0.4,1,1v9.8&#10;&#9;&#9;&#9;&#9;&#9;C258.6,877.5,258.2,877.9,257.6,877.9z M248.9,875.9h7.8v-7.8h-7.8V875.9z" transform="matrix(0.9999999999999999, 0, 0, 0.9999999999999999, -1.4210854715202004e-13, 0)"/><path fill="#7C7C7B" d="M216.7,891.2h-9.8c-0.6,0-1-0.4-1-1v-9.8c0-0.6,0.4-1,1-1h9.8c0.6,0,1,0.4,1,1v9.8&#10;&#9;&#9;&#9;&#9;&#9;C217.7,890.7,217.2,891.2,216.7,891.2z M207.9,889.2h7.8v-7.8h-7.8V889.2z" transform="matrix(0.9999999999999999, 0, 0, 0.9999999999999999, -1.4210854715202004e-13, 0)"/><path fill="#7C7C7B" d="M230.3,891.2h-9.8c-0.6,0-1-0.4-1-1v-9.8c0-0.6,0.4-1,1-1h9.8c0.6,0,1,0.4,1,1v9.8&#10;&#9;&#9;&#9;&#9;&#9;C231.3,890.7,230.9,891.2,230.3,891.2z M221.6,889.2h7.8v-7.8h-7.8V889.2z" transform="matrix(0.9999999999999999, 0, 0, 0.9999999999999999, -1.4210854715202004e-13, 0)"/><path fill="#7C7C7B" d="M244,891.2h-9.8c-0.6,0-1-0.4-1-1v-9.8c0-0.6,0.4-1,1-1h9.8c0.6,0,1,0.4,1,1v9.8&#10;&#9;&#9;&#9;&#9;&#9;C245,890.7,244.5,891.2,244,891.2z M235.2,889.2h7.8v-7.8h-7.8V889.2z" transform="matrix(0.9999999999999999, 0, 0, 0.9999999999999999, -1.4210854715202004e-13, 0)"/><path fill="#7C7C7B" d="M257.6,891.2h-9.8c-0.6,0-1-0.4-1-1v-9.8c0-0.6,0.4-1,1-1h9.8c0.6,0,1,0.4,1,1v9.8&#10;&#9;&#9;&#9;&#9;&#9;C258.6,890.7,258.2,891.2,257.6,891.2z M248.9,889.2h7.8v-7.8h-7.8V889.2z" transform="matrix(0.9999999999999999, 0, 0, 0.9999999999999999, -1.4210854715202004e-13, 0)"/><path fill="#7C7C7B" d="M677.3,636.6h-130c-5.5,0-9.9-4.4-9.9-9.9c0-5.5,4.4-9.9,9.9-9.9h4.6c-0.1-0.6-0.1-1.2-0.1-1.8&#10;&#9;&#9;&#9;c0-10.8,8.8-19.5,19.5-19.5c6.3,0,12.2,3,15.9,8.1c3.2-1.7,7-2.3,10.6-1.5c3-11,13-18.7,24.5-18.7c14,0,25.4,11.4,25.4,25.4&#10;&#9;&#9;&#9;c0,0.3,0,0.6,0,0.9c1-0.3,2-0.4,3-0.4c4.8,0,9,2.9,10.7,7.3h15.9c5.5,0,9.9,4.4,9.9,9.9C687.2,632.1,682.8,636.6,677.3,636.6z&#10;&#9;&#9;&#9; M547.3,618.8c-4.4,0-7.9,3.5-7.9,7.9s3.5,7.9,7.9,7.9h130c4.4,0,7.9-3.5,7.9-7.9s-3.5-7.9-7.9-7.9h-16.6c-0.4,0-0.8-0.3-1-0.7&#10;&#9;&#9;&#9;c-1.2-4-4.9-6.6-9-6.6c-1.3,0-2.5,0.3-3.7,0.8c-0.3,0.1-0.7,0.1-1-0.1c-0.3-0.2-0.4-0.6-0.4-0.9c0.1-0.8,0.1-1.5,0.1-2.3&#10;&#9;&#9;&#9;c0-12.9-10.5-23.4-23.4-23.4c-11,0-20.3,7.5-22.8,18.1c-0.1,0.3-0.2,0.5-0.5,0.6c-0.2,0.1-0.5,0.2-0.8,0.1&#10;&#9;&#9;&#9;c-3.6-1.1-7.6-0.5-10.8,1.5c-0.5,0.3-1.1,0.2-1.4-0.3c-3.2-5-8.7-8-14.7-8c-9.7,0-17.5,7.9-17.5,17.5c0,0.9,0.1,1.7,0.2,2.6&#10;&#9;&#9;&#9;c0,0.3,0,0.6-0.2,0.8c-0.2,0.2-0.5,0.3-0.8,0.3H547.3z" transform="matrix(0.9999999999999999, 0, 0, 0.9999999999999999, -8.526512829121202e-14, 0)"/><path fill="#7C7C7B" d="M1295.7,544.7h-105.3c-4.5,0-8.2-3.7-8.2-8.2s3.7-8.2,8.2-8.2h3.5c0-0.4,0-0.8,0-1.2c0-8.8,7.2-16,16-16&#10;&#9;&#9;&#9;c5.1,0,9.9,2.4,12.9,6.5c2.6-1.3,5.6-1.8,8.4-1.2c2.5-8.9,10.6-15.1,20-15.1c11.5,0,20.8,9.3,20.8,20.8c0,0.2,0,0.3,0,0.5&#10;&#9;&#9;&#9;c0.7-0.2,1.5-0.3,2.2-0.3c3.9,0,7.3,2.4,8.8,5.9h12.7c4.5,0,8.2,3.7,8.2,8.2S1300.2,544.7,1295.7,544.7z M1190.4,530.3&#10;&#9;&#9;&#9;c-3.4,0-6.2,2.8-6.2,6.2s2.8,6.2,6.2,6.2h105.3c3.4,0,6.2-2.8,6.2-6.2s-2.8-6.2-6.2-6.2h-13.4c-0.4,0-0.8-0.3-1-0.7&#10;&#9;&#9;&#9;c-1-3.1-3.8-5.2-7.1-5.2c-1,0-2,0.2-2.9,0.6c-0.3,0.1-0.7,0.1-1-0.1c-0.3-0.2-0.4-0.6-0.4-0.9c0.1-0.6,0.1-1.2,0.1-1.8&#10;&#9;&#9;&#9;c0-10.4-8.4-18.8-18.8-18.8c-8.8,0-16.3,6-18.3,14.5c-0.1,0.3-0.2,0.5-0.5,0.6c-0.2,0.1-0.5,0.2-0.8,0.1c-2.9-0.9-6.1-0.4-8.6,1.2&#10;&#9;&#9;&#9;c-0.5,0.3-1.1,0.2-1.4-0.3c-2.6-4-7-6.4-11.8-6.4c-7.7,0-14,6.3-14,14c0,0.7,0.1,1.4,0.2,2.1c0,0.3,0,0.6-0.2,0.8&#10;&#9;&#9;&#9;c-0.2,0.2-0.5,0.3-0.8,0.3H1190.4z" transform="matrix(0.9999999999999999, 0, 0, 0.9999999999999999, -8.526512829121202e-14, 0)"/><path fill="#7C7C7B" d="M1049,611.4H943.7c-4.5,0-8.2-3.7-8.2-8.2s3.7-8.2,8.2-8.2h12.7c1.4-3.6,4.9-5.9,8.8-5.9&#10;&#9;&#9;&#9;c0.8,0,1.5,0.1,2.2,0.3c0-0.2,0-0.3,0-0.5c0-11.5,9.3-20.8,20.8-20.8c9.4,0,17.5,6.2,20,15.1c2.8-0.6,5.9-0.2,8.4,1.2&#10;&#9;&#9;&#9;c3-4.1,7.8-6.5,12.9-6.5c8.8,0,16,7.2,16,16c0,0.4,0,0.8,0,1.2h3.5c4.5,0,8.2,3.7,8.2,8.2S1053.5,611.4,1049,611.4z M943.7,596.9&#10;&#9;&#9;&#9;c-3.4,0-6.2,2.8-6.2,6.2s2.8,6.2,6.2,6.2H1049c3.4,0,6.2-2.8,6.2-6.2s-2.8-6.2-6.2-6.2h-4.6c-0.3,0-0.6-0.1-0.8-0.3&#10;&#9;&#9;&#9;c-0.2-0.2-0.3-0.5-0.2-0.8c0.1-0.7,0.2-1.4,0.2-2.1c0-7.7-6.3-14-14-14c-4.8,0-9.2,2.4-11.8,6.4c-0.3,0.5-0.9,0.6-1.4,0.3&#10;&#9;&#9;&#9;c-2.5-1.6-5.7-2-8.6-1.2c-0.3,0.1-0.5,0-0.8-0.1c-0.2-0.1-0.4-0.4-0.5-0.6c-2-8.6-9.5-14.5-18.3-14.5c-10.4,0-18.8,8.4-18.8,18.8&#10;&#9;&#9;&#9;c0,0.6,0,1.2,0.1,1.8c0,0.4-0.1,0.7-0.4,0.9c-0.3,0.2-0.7,0.2-1,0.1c-0.9-0.4-1.9-0.6-2.9-0.6c-3.3,0-6.1,2.1-7.1,5.2&#10;&#9;&#9;&#9;c-0.1,0.4-0.5,0.7-1,0.7H943.7z" transform="matrix(0.9999999999999999, 0, 0, 0.9999999999999999, -8.526512829121202e-14, 0)"/><path fill="#7C7C7B" d="M191.9,588.5h-88.7c-3.9,0-7.1-3.2-7.1-7.1c0-3.9,3.2-7.1,7.1-7.1h10.6c1.3-3,4.2-5,7.5-5&#10;&#9;&#9;&#9;c0.6,0,1.2,0.1,1.7,0.2c0-0.1,0-0.2,0-0.2c0-9.7,7.9-17.7,17.7-17.7c7.9,0,14.8,5.2,17,12.7c2.3-0.5,4.8-0.1,6.9,1&#10;&#9;&#9;&#9;c2.6-3.4,6.6-5.5,10.9-5.5c7.5,0,13.6,6.1,13.6,13.6c0,0.3,0,0.6,0,0.9h2.8c3.9,0,7.1,3.2,7.1,7.1&#10;&#9;&#9;&#9;C198.9,585.4,195.8,588.5,191.9,588.5z M103.2,576.4c-2.8,0-5.1,2.3-5.1,5.1s2.3,5.1,5.1,5.1h88.7c2.8,0,5.1-2.3,5.1-5.1&#10;&#9;&#9;&#9;s-2.3-5.1-5.1-5.1H188c-0.3,0-0.6-0.1-0.8-0.3c-0.2-0.2-0.3-0.5-0.2-0.8c0.1-0.6,0.1-1.2,0.1-1.7c0-6.4-5.2-11.6-11.6-11.6&#10;&#9;&#9;&#9;c-4,0-7.6,2-9.8,5.3c-0.3,0.5-0.9,0.6-1.4,0.3c-2.1-1.3-4.7-1.7-7.1-1c-0.3,0.1-0.5,0-0.8-0.1c-0.2-0.1-0.4-0.4-0.5-0.6&#10;&#9;&#9;&#9;c-1.7-7.1-7.9-12.1-15.3-12.1c-8.6,0-15.7,7-15.7,15.7c0,0.5,0,1,0.1,1.5c0,0.4-0.1,0.7-0.4,0.9c-0.3,0.2-0.7,0.3-1,0.1&#10;&#9;&#9;&#9;c-0.8-0.3-1.6-0.5-2.4-0.5c-2.7,0-5,1.7-5.9,4.3c-0.1,0.4-0.5,0.7-1,0.7H103.2z" transform="matrix(0.9999999999999999, 0, 0, 0.9999999999999999, -8.526512829121202e-14, 0)"/><path fill="#7C7C7B" d="M467,767.3H280.2c-0.6,0-1-0.4-1-1v-37c0-0.6,0.4-1,1-1H467c0.6,0,1,0.4,1,1v37&#10;&#9;&#9;&#9;C468,766.8,467.5,767.3,467,767.3z M281.2,765.3H466v-35H281.2V765.3z" transform="matrix(0.9999999999999999, 0, 0, 0.9999999999999999, -8.526512829121202e-14, 0)"/><path fill="#7C7C7B" d="M467,843.4H280.2c-0.6,0-1-0.4-1-1v-37c0-0.6,0.4-1,1-1H467c0.6,0,1,0.4,1,1v37&#10;&#9;&#9;&#9;C468,842.9,467.5,843.4,467,843.4z M281.2,841.4H466v-35H281.2V841.4z" transform="matrix(0.9999999999999999, 0, 0, 0.9999999999999999, -8.526512829121202e-14, 0)"/><path fill="#7C7C7B" d="M458.2,806.4H288.9c-0.6,0-1-0.4-1-1v-39.1c0-0.6,0.4-1,1-1h169.3c0.6,0,1,0.4,1,1v39.1&#10;&#9;&#9;&#9;C459.2,806,458.8,806.4,458.2,806.4z M289.9,804.4h167.3v-37.1H289.9V804.4z" transform="matrix(0.9999999999999999, 0, 0, 0.9999999999999999, -8.526512829121202e-14, 0)"/><path fill="#7C7C7B" d="M458.2,900H288.9c-0.6,0-1-0.4-1-1v-56.6c0-0.6,0.4-1,1-1h169.3c0.6,0,1,0.4,1,1V899&#10;&#9;&#9;&#9;C459.2,899.6,458.8,900,458.2,900z M289.9,898h167.3v-54.6H289.9V898z" transform="matrix(0.9999999999999999, 0, 0, 0.9999999999999999, -8.526512829121202e-14, 0)"/><g transform="matrix(0.9999999999999999, 0, 0, 0.9999999999999999, -1.1368683772161603e-13, 0)">
				<path fill="#7C7C7B" d="M319.5,806.4h-15.3c-0.6,0-1-0.4-1-1v-28.6c0-0.6,0.4-1,1-1h15.3c0.6,0,1,0.4,1,1v28.6&#10;&#9;&#9;&#9;&#9;&#9;C320.5,805.9,320,806.4,319.5,806.4z M305.2,804.4h13.3v-26.6h-13.3V804.4z"/>
				<g>
					<path fill="#7C7C7B" d="M335.9,786h-8.2c-0.6,0-1-0.4-1-1v-8.2c0-0.6,0.4-1,1-1h8.2c0.6,0,1,0.4,1,1v8.2&#10;&#9;&#9;&#9;&#9;&#9;&#9;C336.9,785.6,336.4,786,335.9,786z M328.7,784h6.2v-6.2h-6.2V784z"/>
					<path fill="#7C7C7B" d="M350.6,786h-8.2c-0.6,0-1-0.4-1-1v-8.2c0-0.6,0.4-1,1-1h8.2c0.6,0,1,0.4,1,1v8.2&#10;&#9;&#9;&#9;&#9;&#9;&#9;C351.6,785.6,351.2,786,350.6,786z M343.4,784h6.2v-6.2h-6.2V784z"/>
					<path fill="#7C7C7B" d="M365.4,786h-8.2c-0.6,0-1-0.4-1-1v-8.2c0-0.6,0.4-1,1-1h8.2c0.6,0,1,0.4,1,1v8.2&#10;&#9;&#9;&#9;&#9;&#9;&#9;C366.4,785.6,365.9,786,365.4,786z M358.2,784h6.2v-6.2h-6.2V784z"/>
				</g>
			</g><path fill="#7C7C7B" d="M397.1,806.4h-15.3c-0.6,0-1-0.4-1-1v-28.6c0-0.6,0.4-1,1-1h15.3c0.6,0,1,0.4,1,1v28.6&#10;&#9;&#9;&#9;&#9;&#9;C398.1,805.9,397.6,806.4,397.1,806.4z M382.8,804.4h13.3v-26.6h-13.3V804.4z" transform="matrix(0.9999999999999999, 0, 0, 0.9999999999999999, -1.4210854715202004e-13, 0)"/><path fill="#7C7C7B" d="M413.4,786h-8.2c-0.6,0-1-0.4-1-1v-8.2c0-0.6,0.4-1,1-1h8.2c0.6,0,1,0.4,1,1v8.2&#10;&#9;&#9;&#9;&#9;&#9;&#9;C414.4,785.6,414,786,413.4,786z M406.3,784h6.2v-6.2h-6.2V784z" transform="matrix(0.9999999999999999, 0, 0, 0.9999999999999999, -1.9895196601282805e-13, 0)"/><path fill="#7C7C7B" d="M428.2,786H420c-0.6,0-1-0.4-1-1v-8.2c0-0.6,0.4-1,1-1h8.2c0.6,0,1,0.4,1,1v8.2&#10;&#9;&#9;&#9;&#9;&#9;&#9;C429.2,785.6,428.8,786,428.2,786z M421,784h6.2v-6.2H421V784z" transform="matrix(0.9999999999999999, 0, 0, 0.9999999999999999, -1.9895196601282805e-13, 0)"/><path fill="#7C7C7B" d="M442.9,786h-8.2c-0.6,0-1-0.4-1-1v-8.2c0-0.6,0.4-1,1-1h8.2c0.6,0,1,0.4,1,1v8.2&#10;&#9;&#9;&#9;&#9;&#9;&#9;C443.9,785.6,443.5,786,442.9,786z M435.8,784h6.2v-6.2h-6.2V784z" transform="matrix(0.9999999999999999, 0, 0, 0.9999999999999999, -1.9895196601282805e-13, 0)"/><path fill="#7C7C7B" d="M467,735.2H279.5c-0.6,0-1-0.4-1-1s0.4-1,1-1H467c0.6,0,1,0.4,1,1S467.5,735.2,467,735.2z" transform="matrix(0.9999999999999999, 0, 0, 0.9999999999999999, -1.1368683772161603e-13, 0)"/><path fill="#7C7C7B" d="M467,740.6H279.5c-0.6,0-1-0.4-1-1s0.4-1,1-1H467c0.6,0,1,0.4,1,1S467.5,740.6,467,740.6z" transform="matrix(0.9999999999999999, 0, 0, 0.9999999999999999, -1.1368683772161603e-13, 0)"/><path fill="#7C7C7B" d="M467,746H279.5c-0.6,0-1-0.4-1-1s0.4-1,1-1H467c0.6,0,1,0.4,1,1S467.5,746,467,746z" transform="matrix(0.9999999999999999, 0, 0, 0.9999999999999999, -1.1368683772161603e-13, 0)"/><path fill="#7C7C7B" d="M467,751.5H279.5c-0.6,0-1-0.4-1-1s0.4-1,1-1H467c0.6,0,1,0.4,1,1S467.5,751.5,467,751.5z" transform="matrix(0.9999999999999999, 0, 0, 0.9999999999999999, -1.1368683772161603e-13, 0)"/><path fill="#7C7C7B" d="M467,756.9H279.5c-0.6,0-1-0.4-1-1s0.4-1,1-1H467c0.6,0,1,0.4,1,1S467.5,756.9,467,756.9z" transform="matrix(0.9999999999999999, 0, 0, 0.9999999999999999, -1.1368683772161603e-13, 0)"/><path fill="#7C7C7B" d="M467,762.4H279.5c-0.6,0-1-0.4-1-1s0.4-1,1-1H467c0.6,0,1,0.4,1,1S467.5,762.4,467,762.4z" transform="matrix(0.9999999999999999, 0, 0, 0.9999999999999999, -1.1368683772161603e-13, 0)"/><path fill="#7C7C7B" d="M467,811.3H279.5c-0.6,0-1-0.4-1-1s0.4-1,1-1H467c0.6,0,1,0.4,1,1S467.5,811.3,467,811.3z" transform="matrix(0.9999999999999999, 0, 0, 0.9999999999999999, -1.1368683772161603e-13, 0)"/><path fill="#7C7C7B" d="M467,816.7H279.5c-0.6,0-1-0.4-1-1s0.4-1,1-1H467c0.6,0,1,0.4,1,1S467.5,816.7,467,816.7z" transform="matrix(0.9999999999999999, 0, 0, 0.9999999999999999, -1.1368683772161603e-13, 0)"/><path fill="#7C7C7B" d="M467,822.2H279.5c-0.6,0-1-0.4-1-1s0.4-1,1-1H467c0.6,0,1,0.4,1,1S467.5,822.2,467,822.2z" transform="matrix(0.9999999999999999, 0, 0, 0.9999999999999999, -1.1368683772161603e-13, 0)"/><path fill="#7C7C7B" d="M467,827.6H279.5c-0.6,0-1-0.4-1-1s0.4-1,1-1H467c0.6,0,1,0.4,1,1S467.5,827.6,467,827.6z" transform="matrix(0.9999999999999999, 0, 0, 0.9999999999999999, -1.1368683772161603e-13, 0)"/><path fill="#7C7C7B" d="M467,833H279.5c-0.6,0-1-0.4-1-1s0.4-1,1-1H467c0.6,0,1,0.4,1,1S467.5,833,467,833z" transform="matrix(0.9999999999999999, 0, 0, 0.9999999999999999, -1.1368683772161603e-13, 0)"/><path fill="#7C7C7B" d="M467,838.5H279.5c-0.6,0-1-0.4-1-1s0.4-1,1-1H467c0.6,0,1,0.4,1,1S467.5,838.5,467,838.5z" transform="matrix(0.9999999999999999, 0, 0, 0.9999999999999999, -1.1368683772161603e-13, 0)"/><path fill="#7C7C7B" d="M499.8,900.1c-0.6,0-1-0.4-1-1V559.9L396,624.3v104.9c0,0.6-0.4,1-1,1s-1-0.4-1-1V623.8&#10;&#9;&#9;&#9;c0-0.3,0.2-0.7,0.5-0.8l104.8-65.7c0.3-0.2,0.7-0.2,1,0c0.3,0.2,0.5,0.5,0.5,0.9v341C500.8,899.7,500.4,900.1,499.8,900.1z" transform="matrix(0.9999999999999999, 0, 0, 0.9999999999999999, -8.526512829121202e-14, 0)"/><path fill="#7C7C7B" d="M425.1,643.2h-12.8c-0.6,0-1-0.4-1-1v-12.8c0-0.6,0.4-1,1-1h12.8c0.6,0,1,0.4,1,1v12.8&#10;&#9;&#9;&#9;&#9;C426.1,642.8,425.6,643.2,425.1,643.2z M413.3,641.2h10.8v-10.8h-10.8V641.2z" transform="matrix(0.9999999999999999, 0, 0, 0.9999999999999999, -1.1368683772161603e-13, 0)"/><path fill="#7C7C7B" d="M444.2,643.2h-12.8c-0.6,0-1-0.4-1-1v-12.8c0-0.6,0.4-1,1-1h12.8c0.6,0,1,0.4,1,1v12.8&#10;&#9;&#9;&#9;&#9;C445.2,642.8,444.8,643.2,444.2,643.2z M432.4,641.2h10.8v-10.8h-10.8V641.2z" transform="matrix(0.9999999999999999, 0, 0, 0.9999999999999999, -1.1368683772161603e-13, 0)"/><path fill="#7C7C7B" d="M463.4,643.2h-12.8c-0.6,0-1-0.4-1-1v-12.8c0-0.6,0.4-1,1-1h12.8c0.6,0,1,0.4,1,1v12.8&#10;&#9;&#9;&#9;&#9;C464.4,642.8,463.9,643.2,463.4,643.2z M451.6,641.2h10.8v-10.8h-10.8V641.2z" transform="matrix(0.9999999999999999, 0, 0, 0.9999999999999999, -1.1368683772161603e-13, 0)"/><path fill="#7C7C7B" d="M482.6,643.2h-12.8c-0.6,0-1-0.4-1-1v-12.8c0-0.6,0.4-1,1-1h12.8c0.6,0,1,0.4,1,1v12.8&#10;&#9;&#9;&#9;&#9;C483.6,642.8,483.1,643.2,482.6,643.2z M470.8,641.2h10.8v-10.8h-10.8V641.2z" transform="matrix(0.9999999999999999, 0, 0, 0.9999999999999999, -1.1368683772161603e-13, 0)"/><path fill="#7C7C7B" d="M425.1,661.5h-12.8c-0.6,0-1-0.4-1-1v-12.8c0-0.6,0.4-1,1-1h12.8c0.6,0,1,0.4,1,1v12.8&#10;&#9;&#9;&#9;&#9;C426.1,661,425.6,661.5,425.1,661.5z M413.3,659.5h10.8v-10.8h-10.8V659.5z" transform="matrix(0.9999999999999999, 0, 0, 0.9999999999999999, -1.1368683772161603e-13, 0)"/><path fill="#7C7C7B" d="M444.2,661.5h-12.8c-0.6,0-1-0.4-1-1v-12.8c0-0.6,0.4-1,1-1h12.8c0.6,0,1,0.4,1,1v12.8&#10;&#9;&#9;&#9;&#9;C445.2,661,444.8,661.5,444.2,661.5z M432.4,659.5h10.8v-10.8h-10.8V659.5z" transform="matrix(0.9999999999999999, 0, 0, 0.9999999999999999, -1.1368683772161603e-13, 0)"/><path fill="#7C7C7B" d="M463.4,661.5h-12.8c-0.6,0-1-0.4-1-1v-12.8c0-0.6,0.4-1,1-1h12.8c0.6,0,1,0.4,1,1v12.8&#10;&#9;&#9;&#9;&#9;C464.4,661,463.9,661.5,463.4,661.5z M451.6,659.5h10.8v-10.8h-10.8V659.5z" transform="matrix(0.9999999999999999, 0, 0, 0.9999999999999999, -1.1368683772161603e-13, 0)"/><path fill="#7C7C7B" d="M482.6,661.5h-12.8c-0.6,0-1-0.4-1-1v-12.8c0-0.6,0.4-1,1-1h12.8c0.6,0,1,0.4,1,1v12.8&#10;&#9;&#9;&#9;&#9;C483.6,661,483.1,661.5,482.6,661.5z M470.8,659.5h10.8v-10.8h-10.8V659.5z" transform="matrix(0.9999999999999999, 0, 0, 0.9999999999999999, -1.1368683772161603e-13, 0)"/><path fill="#7C7C7B" d="M425.1,679.7h-12.8c-0.6,0-1-0.4-1-1v-12.8c0-0.6,0.4-1,1-1h12.8c0.6,0,1,0.4,1,1v12.8&#10;&#9;&#9;&#9;&#9;&#9;C426.1,679.3,425.6,679.7,425.1,679.7z M413.3,677.7h10.8v-10.8h-10.8V677.7z" transform="matrix(0.9999999999999999, 0, 0, 0.9999999999999999, -1.4210854715202004e-13, 0)"/><path fill="#7C7C7B" d="M444.2,679.7h-12.8c-0.6,0-1-0.4-1-1v-12.8c0-0.6,0.4-1,1-1h12.8c0.6,0,1,0.4,1,1v12.8&#10;&#9;&#9;&#9;&#9;&#9;C445.2,679.3,444.8,679.7,444.2,679.7z M432.4,677.7h10.8v-10.8h-10.8V677.7z" transform="matrix(0.9999999999999999, 0, 0, 0.9999999999999999, -1.4210854715202004e-13, 0)"/><path fill="#7C7C7B" d="M463.4,679.7h-12.8c-0.6,0-1-0.4-1-1v-12.8c0-0.6,0.4-1,1-1h12.8c0.6,0,1,0.4,1,1v12.8&#10;&#9;&#9;&#9;&#9;&#9;C464.4,679.3,463.9,679.7,463.4,679.7z M451.6,677.7h10.8v-10.8h-10.8V677.7z" transform="matrix(0.9999999999999999, 0, 0, 0.9999999999999999, -1.4210854715202004e-13, 0)"/><path fill="#7C7C7B" d="M482.6,679.7h-12.8c-0.6,0-1-0.4-1-1v-12.8c0-0.6,0.4-1,1-1h12.8c0.6,0,1,0.4,1,1v12.8&#10;&#9;&#9;&#9;&#9;&#9;C483.6,679.3,483.1,679.7,482.6,679.7z M470.8,677.7h10.8v-10.8h-10.8V677.7z" transform="matrix(0.9999999999999999, 0, 0, 0.9999999999999999, -1.4210854715202004e-13, 0)"/><path fill="#7C7C7B" d="M425.1,698h-12.8c-0.6,0-1-0.4-1-1v-12.8c0-0.6,0.4-1,1-1h12.8c0.6,0,1,0.4,1,1V697&#10;&#9;&#9;&#9;&#9;&#9;C426.1,697.5,425.6,698,425.1,698z M413.3,696h10.8v-10.8h-10.8V696z" transform="matrix(0.9999999999999999, 0, 0, 0.9999999999999999, -1.4210854715202004e-13, 0)"/><path fill="#7C7C7B" d="M444.2,698h-12.8c-0.6,0-1-0.4-1-1v-12.8c0-0.6,0.4-1,1-1h12.8c0.6,0,1,0.4,1,1V697&#10;&#9;&#9;&#9;&#9;&#9;C445.2,697.5,444.8,698,444.2,698z M432.4,696h10.8v-10.8h-10.8V696z" transform="matrix(0.9999999999999999, 0, 0, 0.9999999999999999, -1.4210854715202004e-13, 0)"/><path fill="#7C7C7B" d="M463.4,698h-12.8c-0.6,0-1-0.4-1-1v-12.8c0-0.6,0.4-1,1-1h12.8c0.6,0,1,0.4,1,1V697&#10;&#9;&#9;&#9;&#9;&#9;C464.4,697.5,463.9,698,463.4,698z M451.6,696h10.8v-10.8h-10.8V696z" transform="matrix(0.9999999999999999, 0, 0, 0.9999999999999999, -1.4210854715202004e-13, 0)"/><path fill="#7C7C7B" d="M482.6,698h-12.8c-0.6,0-1-0.4-1-1v-12.8c0-0.6,0.4-1,1-1h12.8c0.6,0,1,0.4,1,1V697&#10;&#9;&#9;&#9;&#9;&#9;C483.6,697.5,483.1,698,482.6,698z M470.8,696h10.8v-10.8h-10.8V696z" transform="matrix(0.9999999999999999, 0, 0, 0.9999999999999999, -1.4210854715202004e-13, 0)"/><path fill="#7C7C7B" d="M425.1,716.2h-12.8c-0.6,0-1-0.4-1-1v-12.8c0-0.6,0.4-1,1-1h12.8c0.6,0,1,0.4,1,1v12.8&#10;&#9;&#9;&#9;&#9;&#9;C426.1,715.8,425.6,716.2,425.1,716.2z M413.3,714.2h10.8v-10.8h-10.8V714.2z" transform="matrix(0.9999999999999999, 0, 0, 0.9999999999999999, -1.4210854715202004e-13, 0)"/><path fill="#7C7C7B" d="M444.2,716.2h-12.8c-0.6,0-1-0.4-1-1v-12.8c0-0.6,0.4-1,1-1h12.8c0.6,0,1,0.4,1,1v12.8&#10;&#9;&#9;&#9;&#9;&#9;C445.2,715.8,444.8,716.2,444.2,716.2z M432.4,714.2h10.8v-10.8h-10.8V714.2z" transform="matrix(0.9999999999999999, 0, 0, 0.9999999999999999, -1.4210854715202004e-13, 0)"/><path fill="#7C7C7B" d="M463.4,716.2h-12.8c-0.6,0-1-0.4-1-1v-12.8c0-0.6,0.4-1,1-1h12.8c0.6,0,1,0.4,1,1v12.8&#10;&#9;&#9;&#9;&#9;&#9;C464.4,715.8,463.9,716.2,463.4,716.2z M451.6,714.2h10.8v-10.8h-10.8V714.2z" transform="matrix(0.9999999999999999, 0, 0, 0.9999999999999999, -1.4210854715202004e-13, 0)"/><path fill="#7C7C7B" d="M482.6,716.2h-12.8c-0.6,0-1-0.4-1-1v-12.8c0-0.6,0.4-1,1-1h12.8c0.6,0,1,0.4,1,1v12.8&#10;&#9;&#9;&#9;&#9;&#9;C483.6,715.8,483.1,716.2,482.6,716.2z M470.8,714.2h10.8v-10.8h-10.8V714.2z" transform="matrix(0.9999999999999999, 0, 0, 0.9999999999999999, -1.4210854715202004e-13, 0)"/><path fill="#7C7C7B" d="M661.6,899.2H518.8c-0.6,0-1-0.4-1-1V750.4c0-0.6,0.4-1,1-1h80.6V729c0-0.6,0.4-1,1-1h61.2&#10;&#9;&#9;&#9;c0.6,0,1,0.4,1,1v169.2C662.6,898.8,662.1,899.2,661.6,899.2z M519.8,897.2h140.7V730h-59.2v20.4c0,0.6-0.4,1-1,1h-80.6V897.2z" transform="matrix(0.9999999999999999, 0, 0, 0.9999999999999999, -8.526512829121202e-14, 0)"/><path fill="#7C7C7B" d="M660.5,827.9H517.8c-0.6,0-1-0.4-1-1s0.4-1,1-1h142.7c0.6,0,1,0.4,1,1S661.1,827.9,660.5,827.9z" transform="matrix(0.9999999999999999, 0, 0, 0.9999999999999999, -8.526512829121202e-14, 0)"/><path fill="#7C7C7B" d="M564.7,899.2h-23.5c-0.6,0-1-0.4-1-1v-48.9c0-0.6,0.4-1,1-1h23.5c0.6,0,1,0.4,1,1v48.9&#10;&#9;&#9;&#9;C565.7,898.8,565.3,899.2,564.7,899.2z M542.3,897.2h21.5v-46.9h-21.5V897.2z" transform="matrix(0.9999999999999999, 0, 0, 0.9999999999999999, -8.526512829121202e-14, 0)"/><path fill="#7C7C7B" d="M564.7,827.9h-23.5c-0.6,0-1-0.4-1-1v-48.9c0-0.6,0.4-1,1-1h23.5c0.6,0,1,0.4,1,1v48.9&#10;&#9;&#9;&#9;C565.7,827.4,565.3,827.9,564.7,827.9z M542.3,825.9h21.5v-46.9h-21.5V825.9z" transform="matrix(0.9999999999999999, 0, 0, 0.9999999999999999, -8.526512829121202e-14, 0)"/><g transform="matrix(0.9999999999999999, 0, 0, 0.9999999999999999, -1.1368683772161603e-13, 0)">
				<path fill="#7C7C7B" d="M591.8,791.7H579c-0.6,0-1-0.4-1-1v-12.8c0-0.6,0.4-1,1-1h12.8c0.6,0,1,0.4,1,1v12.8&#10;&#9;&#9;&#9;&#9;&#9;C592.8,791.3,592.3,791.7,591.8,791.7z M580,789.7h10.8v-10.8H580V789.7z"/>
				<path fill="#7C7C7B" d="M610.9,791.7h-12.8c-0.6,0-1-0.4-1-1v-12.8c0-0.6,0.4-1,1-1h12.8c0.6,0,1,0.4,1,1v12.8&#10;&#9;&#9;&#9;&#9;&#9;C611.9,791.3,611.5,791.7,610.9,791.7z M599.2,789.7h10.8v-10.8h-10.8V789.7z"/>
				<path fill="#7C7C7B" d="M591.8,810H579c-0.6,0-1-0.4-1-1v-12.8c0-0.6,0.4-1,1-1h12.8c0.6,0,1,0.4,1,1V809&#10;&#9;&#9;&#9;&#9;&#9;C592.8,809.5,592.3,810,591.8,810z M580,808h10.8v-10.8H580V808z"/>
				<path fill="#7C7C7B" d="M610.9,810h-12.8c-0.6,0-1-0.4-1-1v-12.8c0-0.6,0.4-1,1-1h12.8c0.6,0,1,0.4,1,1V809&#10;&#9;&#9;&#9;&#9;&#9;C611.9,809.5,611.5,810,610.9,810z M599.2,808h10.8v-10.8h-10.8V808z"/>
			</g><path fill="#7C7C7B" d="M631.5,791.7h-12.8c-0.6,0-1-0.4-1-1v-12.8c0-0.6,0.4-1,1-1h12.8c0.6,0,1,0.4,1,1v12.8&#10;&#9;&#9;&#9;&#9;&#9;C632.5,791.3,632,791.7,631.5,791.7z M619.7,789.7h10.8v-10.8h-10.8V789.7z" transform="matrix(0.9999999999999999, 0, 0, 0.9999999999999999, -1.4210854715202004e-13, 0)"/><path fill="#7C7C7B" d="M650.6,791.7h-12.8c-0.6,0-1-0.4-1-1v-12.8c0-0.6,0.4-1,1-1h12.8c0.6,0,1,0.4,1,1v12.8&#10;&#9;&#9;&#9;&#9;&#9;C651.6,791.3,651.2,791.7,650.6,791.7z M638.8,789.7h10.8v-10.8h-10.8V789.7z" transform="matrix(0.9999999999999999, 0, 0, 0.9999999999999999, -1.4210854715202004e-13, 0)"/><path fill="#7C7C7B" d="M631.5,810h-12.8c-0.6,0-1-0.4-1-1v-12.8c0-0.6,0.4-1,1-1h12.8c0.6,0,1,0.4,1,1V809&#10;&#9;&#9;&#9;&#9;&#9;C632.5,809.5,632,810,631.5,810z M619.7,808h10.8v-10.8h-10.8V808z" transform="matrix(0.9999999999999999, 0, 0, 0.9999999999999999, -1.4210854715202004e-13, 0)"/><path fill="#7C7C7B" d="M650.6,810h-12.8c-0.6,0-1-0.4-1-1v-12.8c0-0.6,0.4-1,1-1h12.8c0.6,0,1,0.4,1,1V809&#10;&#9;&#9;&#9;&#9;&#9;C651.6,809.5,651.2,810,650.6,810z M638.8,808h10.8v-10.8h-10.8V808z" transform="matrix(0.9999999999999999, 0, 0, 0.9999999999999999, -1.4210854715202004e-13, 0)"/><g transform="matrix(0.9999999999999999, 0, 0, 0.9999999999999999, -1.1368683772161603e-13, 0)">
				<path fill="#7C7C7B" d="M591.8,863.1H579c-0.6,0-1-0.4-1-1v-12.8c0-0.6,0.4-1,1-1h12.8c0.6,0,1,0.4,1,1v12.8&#10;&#9;&#9;&#9;&#9;&#9;C592.8,862.6,592.3,863.1,591.8,863.1z M580,861.1h10.8v-10.8H580V861.1z"/>
				<path fill="#7C7C7B" d="M610.9,863.1h-12.8c-0.6,0-1-0.4-1-1v-12.8c0-0.6,0.4-1,1-1h12.8c0.6,0,1,0.4,1,1v12.8&#10;&#9;&#9;&#9;&#9;&#9;C611.9,862.6,611.5,863.1,610.9,863.1z M599.2,861.1h10.8v-10.8h-10.8V861.1z"/>
				<path fill="#7C7C7B" d="M591.8,881.3H579c-0.6,0-1-0.4-1-1v-12.8c0-0.6,0.4-1,1-1h12.8c0.6,0,1,0.4,1,1v12.8&#10;&#9;&#9;&#9;&#9;&#9;C592.8,880.9,592.3,881.3,591.8,881.3z M580,879.3h10.8v-10.8H580V879.3z"/>
				<path fill="#7C7C7B" d="M610.9,881.3h-12.8c-0.6,0-1-0.4-1-1v-12.8c0-0.6,0.4-1,1-1h12.8c0.6,0,1,0.4,1,1v12.8&#10;&#9;&#9;&#9;&#9;&#9;C611.9,880.9,611.5,881.3,610.9,881.3z M599.2,879.3h10.8v-10.8h-10.8V879.3z"/>
			</g><path fill="#7C7C7B" d="M631.5,863.1h-12.8c-0.6,0-1-0.4-1-1v-12.8c0-0.6,0.4-1,1-1h12.8c0.6,0,1,0.4,1,1v12.8&#10;&#9;&#9;&#9;&#9;&#9;C632.5,862.6,632,863.1,631.5,863.1z M619.7,861.1h10.8v-10.8h-10.8V861.1z" transform="matrix(0.9999999999999999, 0, 0, 0.9999999999999999, -1.4210854715202004e-13, 0)"/><path fill="#7C7C7B" d="M650.6,863.1h-12.8c-0.6,0-1-0.4-1-1v-12.8c0-0.6,0.4-1,1-1h12.8c0.6,0,1,0.4,1,1v12.8&#10;&#9;&#9;&#9;&#9;&#9;C651.6,862.6,651.2,863.1,650.6,863.1z M638.8,861.1h10.8v-10.8h-10.8V861.1z" transform="matrix(0.9999999999999999, 0, 0, 0.9999999999999999, -1.4210854715202004e-13, 0)"/><path fill="#7C7C7B" d="M631.5,881.3h-12.8c-0.6,0-1-0.4-1-1v-12.8c0-0.6,0.4-1,1-1h12.8c0.6,0,1,0.4,1,1v12.8&#10;&#9;&#9;&#9;&#9;&#9;C632.5,880.9,632,881.3,631.5,881.3z M619.7,879.3h10.8v-10.8h-10.8V879.3z" transform="matrix(0.9999999999999999, 0, 0, 0.9999999999999999, -1.4210854715202004e-13, 0)"/><path fill="#7C7C7B" d="M650.6,881.3h-12.8c-0.6,0-1-0.4-1-1v-12.8c0-0.6,0.4-1,1-1h12.8c0.6,0,1,0.4,1,1v12.8&#10;&#9;&#9;&#9;&#9;&#9;C651.6,880.9,651.2,881.3,650.6,881.3z M638.8,879.3h10.8v-10.8h-10.8V879.3z" transform="matrix(0.9999999999999999, 0, 0, 0.9999999999999999, -1.4210854715202004e-13, 0)"/><g transform="matrix(0.9999999999999999, 0, 0, 0.9999999999999999, -1.1368683772161603e-13, 0)">
				<path d="M 709.5 633.5 H 828.800003 V 655.9 H 709.5 V 633.5 Z" fill="#D4CFFF"/>
				<path d="M 709.5 717.099976 H 828.800003 V 739.499975 H 709.5 V 717.099976 Z" fill="#D4CFFF"/>
				<path d="M 709.5 800.700012 H 828.800003 V 823.100012 H 709.5 V 800.700012 Z" fill="#D4CFFF"/>
				<path d="M 709.5 884.299988 H 828.800003 V 897.699987 H 709.5 V 884.299988 Z" fill="#D4CFFF"/>
			</g><path fill="#7C7C7B" d="M828.8,648.9H709.5c-0.6,0-1-0.4-1-1v-22.4c0-0.6,0.4-1,1-1h119.3c0.6,0,1,0.4,1,1v22.4&#10;&#9;&#9;&#9;&#9;&#9;C829.8,648.5,829.3,648.9,828.8,648.9z M710.5,646.9h117.3v-20.4H710.5V646.9z" transform="matrix(0.9999999999999999, 0, 0, 0.9999999999999999, -1.4210854715202004e-13, 0)"/><path fill="#7C7C7B" d="M828.8,732.5H709.5c-0.6,0-1-0.4-1-1v-22.4c0-0.6,0.4-1,1-1h119.3c0.6,0,1,0.4,1,1v22.4&#10;&#9;&#9;&#9;&#9;&#9;C829.8,732.1,829.3,732.5,828.8,732.5z M710.5,730.5h117.3v-20.4H710.5V730.5z" transform="matrix(0.9999999999999999, 0, 0, 0.9999999999999999, -1.4210854715202004e-13, 0)"/><path fill="#7C7C7B" d="M828.8,816.1H709.5c-0.6,0-1-0.4-1-1v-22.4c0-0.6,0.4-1,1-1h119.3c0.6,0,1,0.4,1,1v22.4&#10;&#9;&#9;&#9;&#9;&#9;C829.8,815.7,829.3,816.1,828.8,816.1z M710.5,814.1h117.3v-20.4H710.5V814.1z" transform="matrix(0.9999999999999999, 0, 0, 0.9999999999999999, -1.4210854715202004e-13, 0)"/><path fill="#7C7C7B" d="M828.8,899.7H709.5c-0.6,0-1-0.4-1-1v-22.4c0-0.6,0.4-1,1-1h119.3c0.6,0,1,0.4,1,1v22.4&#10;&#9;&#9;&#9;&#9;&#9;C829.8,899.3,829.3,899.7,828.8,899.7z M710.5,897.7h117.3v-20.4H710.5V897.7z" transform="matrix(0.9999999999999999, 0, 0, 0.9999999999999999, -1.4210854715202004e-13, 0)"/><path fill="#7C7C7B" d="M822.8,877.3H715.5c-0.6,0-1-0.4-1-1v-61.2c0-0.6,0.4-1,1-1h107.3c0.6,0,1,0.4,1,1v61.2&#10;&#9;&#9;&#9;&#9;&#9;C823.8,876.9,823.3,877.3,822.8,877.3z M716.5,875.3h105.3v-59.2H716.5V875.3z" transform="matrix(0.9999999999999999, 0, 0, 0.9999999999999999, -1.4210854715202004e-13, 0)"/><path fill="#7C7C7B" d="M822.8,793.7H715.5c-0.6,0-1-0.4-1-1v-61.2c0-0.6,0.4-1,1-1h107.3c0.6,0,1,0.4,1,1v61.2&#10;&#9;&#9;&#9;&#9;&#9;C823.8,793.3,823.3,793.7,822.8,793.7z M716.5,791.7h105.3v-59.2H716.5V791.7z" transform="matrix(0.9999999999999999, 0, 0, 0.9999999999999999, -1.4210854715202004e-13, 0)"/><path fill="#7C7C7B" d="M822.8,710.1H715.5c-0.6,0-1-0.4-1-1v-61.2c0-0.6,0.4-1,1-1h107.3c0.6,0,1,0.4,1,1v61.2&#10;&#9;&#9;&#9;&#9;&#9;C823.8,709.7,823.3,710.1,822.8,710.1z M716.5,708.1h105.3v-59.2H716.5V708.1z" transform="matrix(0.9999999999999999, 0, 0, 0.9999999999999999, -1.4210854715202004e-13, 0)"/><path fill="#7C7C7B" d="M812.8,626.3h-87.4c-0.6,0-1-0.4-1-1v-17.7c0-0.6,0.4-1,1-1h87.4c0.6,0,1,0.4,1,1v17.7&#10;&#9;&#9;&#9;&#9;C813.8,625.9,813.4,626.3,812.8,626.3z M726.4,624.3h85.4v-15.7h-85.4V624.3z" transform="matrix(0.9999999999999999, 0, 0, 0.9999999999999999, -1.1368683772161603e-13, 0)"/><path fill="#7C7C7B" d="M806.8,608.5h-75.3c-0.6,0-1-0.4-1-1v-17.7c0-0.6,0.4-1,1-1h75.3c0.6,0,1,0.4,1,1v17.7&#10;&#9;&#9;&#9;&#9;C807.8,608.1,807.4,608.5,806.8,608.5z M732.5,606.5h73.3v-15.7h-73.3V606.5z" transform="matrix(0.9999999999999999, 0, 0, 0.9999999999999999, -1.1368683772161603e-13, 0)"/><path fill="#7C7C7B" d="M803.2,590.8h-68c-0.6,0-1-0.4-1-1v-11c0-0.6,0.4-1,1-1h68c0.6,0,1,0.4,1,1v11&#10;&#9;&#9;&#9;&#9;C804.2,590.3,803.7,590.8,803.2,590.8z M736.1,588.8h66v-9h-66V588.8z" transform="matrix(0.9999999999999999, 0, 0, 0.9999999999999999, -1.1368683772161603e-13, 0)"/><g transform="matrix(0.9999999999999999, 0, 0, 0.9999999999999999, -1.4210854715202004e-13, 0)">
					<path fill="#7C7C7B" d="M747.1,844.5h-12.8c-0.6,0-1-0.4-1-1v-12.8c0-0.6,0.4-1,1-1h12.8c0.6,0,1,0.4,1,1v12.8&#10;&#9;&#9;&#9;&#9;&#9;&#9;C748.1,844,747.7,844.5,747.1,844.5z M735.3,842.5h10.8v-10.8h-10.8V842.5z"/>
					<path fill="#7C7C7B" d="M766.3,844.5h-12.8c-0.6,0-1-0.4-1-1v-12.8c0-0.6,0.4-1,1-1h12.8c0.6,0,1,0.4,1,1v12.8&#10;&#9;&#9;&#9;&#9;&#9;&#9;C767.3,844,766.8,844.5,766.3,844.5z M754.5,842.5h10.8v-10.8h-10.8V842.5z"/>
					<path fill="#7C7C7B" d="M747.1,862.7h-12.8c-0.6,0-1-0.4-1-1v-12.8c0-0.6,0.4-1,1-1h12.8c0.6,0,1,0.4,1,1v12.8&#10;&#9;&#9;&#9;&#9;&#9;&#9;C748.1,862.2,747.7,862.7,747.1,862.7z M735.3,860.7h10.8v-10.8h-10.8V860.7z"/>
					<path fill="#7C7C7B" d="M766.3,862.7h-12.8c-0.6,0-1-0.4-1-1v-12.8c0-0.6,0.4-1,1-1h12.8c0.6,0,1,0.4,1,1v12.8&#10;&#9;&#9;&#9;&#9;&#9;&#9;C767.3,862.2,766.8,862.7,766.3,862.7z M754.5,860.7h10.8v-10.8h-10.8V860.7z"/>
				</g><path fill="#7C7C7B" d="M784.8,844.5H772c-0.6,0-1-0.4-1-1v-12.8c0-0.6,0.4-1,1-1h12.8c0.6,0,1,0.4,1,1v12.8&#10;&#9;&#9;&#9;&#9;&#9;&#9;C785.8,844,785.3,844.5,784.8,844.5z M773,842.5h10.8v-10.8H773V842.5z" transform="matrix(0.9999999999999999, 0, 0, 0.9999999999999999, -1.9895196601282805e-13, 0)"/><path fill="#7C7C7B" d="M803.9,844.5h-12.8c-0.6,0-1-0.4-1-1v-12.8c0-0.6,0.4-1,1-1h12.8c0.6,0,1,0.4,1,1v12.8&#10;&#9;&#9;&#9;&#9;&#9;&#9;C804.9,844,804.5,844.5,803.9,844.5z M792.1,842.5h10.8v-10.8h-10.8V842.5z" transform="matrix(0.9999999999999999, 0, 0, 0.9999999999999999, -1.9895196601282805e-13, 0)"/><path fill="#7C7C7B" d="M784.8,862.7H772c-0.6,0-1-0.4-1-1v-12.8c0-0.6,0.4-1,1-1h12.8c0.6,0,1,0.4,1,1v12.8&#10;&#9;&#9;&#9;&#9;&#9;&#9;C785.8,862.2,785.3,862.7,784.8,862.7z M773,860.7h10.8v-10.8H773V860.7z" transform="matrix(0.9999999999999999, 0, 0, 0.9999999999999999, -1.9895196601282805e-13, 0)"/><path fill="#7C7C7B" d="M803.9,862.7h-12.8c-0.6,0-1-0.4-1-1v-12.8c0-0.6,0.4-1,1-1h12.8c0.6,0,1,0.4,1,1v12.8&#10;&#9;&#9;&#9;&#9;&#9;&#9;C804.9,862.2,804.5,862.7,803.9,862.7z M792.1,860.7h10.8v-10.8h-10.8V860.7z" transform="matrix(0.9999999999999999, 0, 0, 0.9999999999999999, -1.9895196601282805e-13, 0)"/><g transform="matrix(0.9999999999999999, 0, 0, 0.9999999999999999, -1.4210854715202004e-13, 0)">
					<path fill="#7C7C7B" d="M747.1,761.1h-12.8c-0.6,0-1-0.4-1-1v-12.8c0-0.6,0.4-1,1-1h12.8c0.6,0,1,0.4,1,1v12.8&#10;&#9;&#9;&#9;&#9;&#9;&#9;C748.1,760.6,747.7,761.1,747.1,761.1z M735.3,759.1h10.8v-10.8h-10.8V759.1z"/>
					<path fill="#7C7C7B" d="M766.3,761.1h-12.8c-0.6,0-1-0.4-1-1v-12.8c0-0.6,0.4-1,1-1h12.8c0.6,0,1,0.4,1,1v12.8&#10;&#9;&#9;&#9;&#9;&#9;&#9;C767.3,760.6,766.8,761.1,766.3,761.1z M754.5,759.1h10.8v-10.8h-10.8V759.1z"/>
					<path fill="#7C7C7B" d="M747.1,779.3h-12.8c-0.6,0-1-0.4-1-1v-12.8c0-0.6,0.4-1,1-1h12.8c0.6,0,1,0.4,1,1v12.8&#10;&#9;&#9;&#9;&#9;&#9;&#9;C748.1,778.8,747.7,779.3,747.1,779.3z M735.3,777.3h10.8v-10.8h-10.8V777.3z"/>
					<path fill="#7C7C7B" d="M766.3,779.3h-12.8c-0.6,0-1-0.4-1-1v-12.8c0-0.6,0.4-1,1-1h12.8c0.6,0,1,0.4,1,1v12.8&#10;&#9;&#9;&#9;&#9;&#9;&#9;C767.3,778.8,766.8,779.3,766.3,779.3z M754.5,777.3h10.8v-10.8h-10.8V777.3z"/>
				</g><path fill="#7C7C7B" d="M784.8,761.1H772c-0.6,0-1-0.4-1-1v-12.8c0-0.6,0.4-1,1-1h12.8c0.6,0,1,0.4,1,1v12.8&#10;&#9;&#9;&#9;&#9;&#9;&#9;C785.8,760.6,785.3,761.1,784.8,761.1z M773,759.1h10.8v-10.8H773V759.1z" transform="matrix(0.9999999999999999, 0, 0, 0.9999999999999999, -1.9895196601282805e-13, 0)"/><path fill="#7C7C7B" d="M803.9,761.1h-12.8c-0.6,0-1-0.4-1-1v-12.8c0-0.6,0.4-1,1-1h12.8c0.6,0,1,0.4,1,1v12.8&#10;&#9;&#9;&#9;&#9;&#9;&#9;C804.9,760.6,804.5,761.1,803.9,761.1z M792.1,759.1h10.8v-10.8h-10.8V759.1z" transform="matrix(0.9999999999999999, 0, 0, 0.9999999999999999, -1.9895196601282805e-13, 0)"/><path fill="#7C7C7B" d="M784.8,779.3H772c-0.6,0-1-0.4-1-1v-12.8c0-0.6,0.4-1,1-1h12.8c0.6,0,1,0.4,1,1v12.8&#10;&#9;&#9;&#9;&#9;&#9;&#9;C785.8,778.8,785.3,779.3,784.8,779.3z M773,777.3h10.8v-10.8H773V777.3z" transform="matrix(0.9999999999999999, 0, 0, 0.9999999999999999, -1.9895196601282805e-13, 0)"/><path fill="#7C7C7B" d="M803.9,779.3h-12.8c-0.6,0-1-0.4-1-1v-12.8c0-0.6,0.4-1,1-1h12.8c0.6,0,1,0.4,1,1v12.8&#10;&#9;&#9;&#9;&#9;&#9;&#9;C804.9,778.8,804.5,779.3,803.9,779.3z M792.1,777.3h10.8v-10.8h-10.8V777.3z" transform="matrix(0.9999999999999999, 0, 0, 0.9999999999999999, -1.9895196601282805e-13, 0)"/><g transform="matrix(0.9999999999999999, 0, 0, 0.9999999999999999, -1.4210854715202004e-13, 0)">
					<path fill="#7C7C7B" d="M747.1,677.7h-12.8c-0.6,0-1-0.4-1-1v-12.8c0-0.6,0.4-1,1-1h12.8c0.6,0,1,0.4,1,1v12.8&#10;&#9;&#9;&#9;&#9;&#9;&#9;C748.1,677.2,747.7,677.7,747.1,677.7z M735.3,675.7h10.8v-10.8h-10.8V675.7z"/>
					<path fill="#7C7C7B" d="M766.3,677.7h-12.8c-0.6,0-1-0.4-1-1v-12.8c0-0.6,0.4-1,1-1h12.8c0.6,0,1,0.4,1,1v12.8&#10;&#9;&#9;&#9;&#9;&#9;&#9;C767.3,677.2,766.8,677.7,766.3,677.7z M754.5,675.7h10.8v-10.8h-10.8V675.7z"/>
					<path fill="#7C7C7B" d="M747.1,695.9h-12.8c-0.6,0-1-0.4-1-1v-12.8c0-0.6,0.4-1,1-1h12.8c0.6,0,1,0.4,1,1v12.8&#10;&#9;&#9;&#9;&#9;&#9;&#9;C748.1,695.4,747.7,695.9,747.1,695.9z M735.3,693.9h10.8v-10.8h-10.8V693.9z"/>
					<path fill="#7C7C7B" d="M766.3,695.9h-12.8c-0.6,0-1-0.4-1-1v-12.8c0-0.6,0.4-1,1-1h12.8c0.6,0,1,0.4,1,1v12.8&#10;&#9;&#9;&#9;&#9;&#9;&#9;C767.3,695.4,766.8,695.9,766.3,695.9z M754.5,693.9h10.8v-10.8h-10.8V693.9z"/>
				</g><path fill="#7C7C7B" d="M784.8,677.7H772c-0.6,0-1-0.4-1-1v-12.8c0-0.6,0.4-1,1-1h12.8c0.6,0,1,0.4,1,1v12.8&#10;&#9;&#9;&#9;&#9;&#9;&#9;C785.8,677.2,785.3,677.7,784.8,677.7z M773,675.7h10.8v-10.8H773V675.7z" transform="matrix(0.9999999999999999, 0, 0, 0.9999999999999999, -1.9895196601282805e-13, 0)"/><path fill="#7C7C7B" d="M803.9,677.7h-12.8c-0.6,0-1-0.4-1-1v-12.8c0-0.6,0.4-1,1-1h12.8c0.6,0,1,0.4,1,1v12.8&#10;&#9;&#9;&#9;&#9;&#9;&#9;C804.9,677.2,804.5,677.7,803.9,677.7z M792.1,675.7h10.8v-10.8h-10.8V675.7z" transform="matrix(0.9999999999999999, 0, 0, 0.9999999999999999, -1.9895196601282805e-13, 0)"/><path fill="#7C7C7B" d="M784.8,695.9H772c-0.6,0-1-0.4-1-1v-12.8c0-0.6,0.4-1,1-1h12.8c0.6,0,1,0.4,1,1v12.8&#10;&#9;&#9;&#9;&#9;&#9;&#9;C785.8,695.4,785.3,695.9,784.8,695.9z M773,693.9h10.8v-10.8H773V693.9z" transform="matrix(0.9999999999999999, 0, 0, 0.9999999999999999, -1.9895196601282805e-13, 0)"/><path fill="#7C7C7B" d="M803.9,695.9h-12.8c-0.6,0-1-0.4-1-1v-12.8c0-0.6,0.4-1,1-1h12.8c0.6,0,1,0.4,1,1v12.8&#10;&#9;&#9;&#9;&#9;&#9;&#9;C804.9,695.4,804.5,695.9,803.9,695.9z M792.1,693.9h10.8v-10.8h-10.8V693.9z" transform="matrix(0.9999999999999999, 0, 0, 0.9999999999999999, -1.9895196601282805e-13, 0)"/><path fill="#7C7C7B" d="M474.1,548.5H278.6c-3.6,0-6.5-2.9-6.5-6.5s2.9-6.5,6.5-6.5h8.3c1-5.2,5.5-9,10.8-9h5.3&#10;&#9;&#9;&#9;c-0.1-0.7-0.1-1.4-0.1-2.1c0-12,9.8-21.8,21.8-21.8c7.1,0,13.7,3.4,17.8,9.2c3.6-2,8-2.6,12.1-1.7c3.3-12.4,14.5-21,27.5-21&#10;&#9;&#9;&#9;c15.7,0,28.5,12.8,28.5,28.5c0,0.4,0,0.8,0,1.2c1.1-0.3,2.3-0.5,3.5-0.5c5.4,0,10.1,3.3,11.9,8.2h17.9c5.4,0,9.9,3.8,10.8,9h19.4&#10;&#9;&#9;&#9;c3.6,0,6.5,2.9,6.5,6.5S477.7,548.5,474.1,548.5z M278.6,537.4c-2.5,0-4.5,2-4.5,4.5s2,4.5,4.5,4.5h195.5c2.5,0,4.5-2,4.5-4.5&#10;&#9;&#9;&#9;s-2-4.5-4.5-4.5h-20.3c-0.5,0-0.9-0.4-1-0.9c-0.5-4.6-4.3-8.1-9-8.1h-18.7c-0.4,0-0.8-0.3-1-0.7c-1.4-4.5-5.5-7.5-10.3-7.5&#10;&#9;&#9;&#9;c-1.5,0-2.9,0.3-4.2,0.9c-0.3,0.1-0.7,0.1-1-0.1c-0.3-0.2-0.4-0.6-0.4-0.9c0.1-0.9,0.1-1.7,0.1-2.6c0-14.6-11.9-26.5-26.5-26.5&#10;&#9;&#9;&#9;c-12.4,0-23,8.4-25.8,20.5c-0.1,0.3-0.2,0.5-0.5,0.6c-0.2,0.1-0.5,0.2-0.8,0.1c-4.1-1.2-8.7-0.6-12.3,1.7&#10;&#9;&#9;&#9;c-0.5,0.3-1.1,0.2-1.4-0.3c-3.7-5.7-9.9-9.1-16.6-9.1c-10.9,0-19.8,8.9-19.8,19.8c0,1,0.1,2,0.2,3c0,0.3,0,0.6-0.2,0.8&#10;&#9;&#9;&#9;c-0.2,0.2-0.5,0.3-0.8,0.3h-6.4c-4.6,0-8.5,3.5-9,8.1c-0.1,0.5-0.5,0.9-1,0.9H278.6z" transform="matrix(0.9999999999999999, 0, 0, 0.9999999999999999, -8.526512829121202e-14, 0)"/><path fill="#7C7C7B" d="M960.8,545.7H765.3c-3.6,0-6.5-2.9-6.5-6.5s2.9-6.5,6.5-6.5h8.3c1-5.2,5.5-9,10.8-9h5.3&#10;&#9;&#9;&#9;c-0.1-0.7-0.1-1.4-0.1-2.1c0-12,9.8-21.8,21.8-21.8c7.1,0,13.7,3.4,17.8,9.2c3.6-2,8-2.6,12.1-1.7c3.3-12.4,14.5-21,27.5-21&#10;&#9;&#9;&#9;c15.7,0,28.5,12.8,28.5,28.5c0,0.4,0,0.8,0,1.2c1.1-0.3,2.3-0.5,3.5-0.5c5.4,0,10.1,3.3,11.9,8.2h17.9c5.4,0,9.9,3.8,10.8,9h19.4&#10;&#9;&#9;&#9;c3.6,0,6.5,2.9,6.5,6.5S964.4,545.7,960.8,545.7z M765.3,534.6c-2.5,0-4.5,2-4.5,4.5s2,4.5,4.5,4.5h195.5c2.5,0,4.5-2,4.5-4.5&#10;&#9;&#9;&#9;s-2-4.5-4.5-4.5h-20.3c-0.5,0-0.9-0.4-1-0.9c-0.5-4.6-4.3-8.1-9-8.1h-18.7c-0.4,0-0.8-0.3-1-0.7c-1.4-4.5-5.5-7.5-10.3-7.5&#10;&#9;&#9;&#9;c-1.5,0-2.9,0.3-4.2,0.9c-0.3,0.1-0.7,0.1-1-0.1c-0.3-0.2-0.4-0.6-0.4-0.9c0.1-0.9,0.1-1.7,0.1-2.6c0-14.6-11.9-26.5-26.5-26.5&#10;&#9;&#9;&#9;c-12.4,0-23,8.4-25.8,20.5c-0.1,0.3-0.2,0.5-0.5,0.6c-0.2,0.1-0.5,0.2-0.8,0.1c-4.1-1.2-8.7-0.6-12.3,1.7&#10;&#9;&#9;&#9;c-0.5,0.3-1.1,0.2-1.4-0.3c-3.7-5.7-9.9-9.1-16.6-9.1c-10.9,0-19.8,8.9-19.8,19.8c0,1,0.1,2,0.2,3c0,0.3,0,0.6-0.2,0.8&#10;&#9;&#9;&#9;c-0.2,0.2-0.5,0.3-0.8,0.3h-6.4c-4.6,0-8.5,3.5-9,8.1c-0.1,0.5-0.5,0.9-1,0.9H765.3z" transform="matrix(0.9999999999999999, 0, 0, 0.9999999999999999, -8.526512829121202e-14, 0)"/><path fill="#7C7C7B" d="M1050.3,721.9H859.8c-0.4,0-0.8-0.3-0.9-0.7s0-0.8,0.3-1.1l95.2-80.8c0.4-0.3,0.9-0.3,1.3,0l95.2,80.8&#10;&#9;&#9;&#9;c0.3,0.3,0.4,0.7,0.3,1.1S1050.7,721.9,1050.3,721.9z M862.6,719.9h185L955,641.4L862.6,719.9z" transform="matrix(0.9999999999999999, 0, 0, 0.9999999999999999, -8.526512829121202e-14, 0)"/><path fill="#7C7C7B" d="M871,802.3c-0.3,0-0.5-0.1-0.7-0.3s-0.3-0.4-0.3-0.7l-0.3-79.9c0-0.6,0.4-1,1-1l168.3-0.6c0,0,0,0,0,0&#10;&#9;&#9;&#9;c0.3,0,0.5,0.1,0.7,0.3s0.3,0.4,0.3,0.7l0.3,79.9c0,0.6-0.4,1-1,1L871,802.3C871,802.3,871,802.3,871,802.3z M871.8,722.4&#10;&#9;&#9;&#9;l0.3,77.9l166.3-0.6l-0.3-77.9L871.8,722.4z" transform="matrix(0.9999999999999999, 0, 0, 0.9999999999999999, -8.526512829121202e-14, 0)"/><path fill="#7C7C7B" d="M1039.2,899.7H870.9c-0.6,0-1-0.4-1-1v-79.9c0-0.6,0.4-1,1-1h168.3c0.6,0,1,0.4,1,1v79.9&#10;&#9;&#9;&#9;C1040.2,899.3,1039.8,899.7,1039.2,899.7z M871.9,897.7h166.3v-77.9H871.9V897.7z" transform="matrix(0.9999999999999999, 0, 0, 0.9999999999999999, -8.526512829121202e-14, 0)"/><path fill="#7C7C7B" d="M1047.5,819.8H862.6c-0.6,0-1-0.4-1-1v-17.7c0-0.6,0.4-1,1-1h184.9c0.6,0,1,0.4,1,1v17.7&#10;&#9;&#9;&#9;C1048.5,819.4,1048,819.8,1047.5,819.8z M863.6,817.8h182.9v-15.7H863.6V817.8z" transform="matrix(0.9999999999999999, 0, 0, 0.9999999999999999, -8.526512829121202e-14, 0)"/><g transform="matrix(0.9999999999999999, 0, 0, 0.9999999999999999, -1.1368683772161603e-13, 0)">
				<g>
					<path fill="#7C7C7B" d="M961.9,766.1h-12.8c-0.6,0-1-0.4-1-1v-12.8c0-0.6,0.4-1,1-1h12.8c0.6,0,1,0.4,1,1v12.8&#10;&#9;&#9;&#9;&#9;&#9;&#9;C962.9,765.7,962.4,766.1,961.9,766.1z M950.1,764.1h10.8v-10.8h-10.8V764.1z"/>
					<path fill="#7C7C7B" d="M981,766.1h-12.8c-0.6,0-1-0.4-1-1v-12.8c0-0.6,0.4-1,1-1H981c0.6,0,1,0.4,1,1v12.8&#10;&#9;&#9;&#9;&#9;&#9;&#9;C982,765.7,981.6,766.1,981,766.1z M969.3,764.1H980v-10.8h-10.8V764.1z"/>
					<path fill="#7C7C7B" d="M961.9,784.3h-12.8c-0.6,0-1-0.4-1-1v-12.8c0-0.6,0.4-1,1-1h12.8c0.6,0,1,0.4,1,1v12.8&#10;&#9;&#9;&#9;&#9;&#9;&#9;C962.9,783.9,962.4,784.3,961.9,784.3z M950.1,782.3h10.8v-10.8h-10.8V782.3z"/>
					<path fill="#7C7C7B" d="M981,784.3h-12.8c-0.6,0-1-0.4-1-1v-12.8c0-0.6,0.4-1,1-1H981c0.6,0,1,0.4,1,1v12.8&#10;&#9;&#9;&#9;&#9;&#9;&#9;C982,783.9,981.6,784.3,981,784.3z M969.3,782.3H980v-10.8h-10.8V782.3z"/>
				</g>
				<g>
					<path fill="#7C7C7B" d="M999.5,766.1h-12.8c-0.6,0-1-0.4-1-1v-12.8c0-0.6,0.4-1,1-1h12.8c0.6,0,1,0.4,1,1v12.8&#10;&#9;&#9;&#9;&#9;&#9;&#9;C1000.5,765.7,1000,766.1,999.5,766.1z M987.7,764.1h10.8v-10.8h-10.8V764.1z"/>
					<path fill="#7C7C7B" d="M1018.7,766.1h-12.8c-0.6,0-1-0.4-1-1v-12.8c0-0.6,0.4-1,1-1h12.8c0.6,0,1,0.4,1,1v12.8&#10;&#9;&#9;&#9;&#9;&#9;&#9;C1019.7,765.7,1019.2,766.1,1018.7,766.1z M1006.9,764.1h10.8v-10.8h-10.8V764.1z"/>
					<path fill="#7C7C7B" d="M999.5,784.3h-12.8c-0.6,0-1-0.4-1-1v-12.8c0-0.6,0.4-1,1-1h12.8c0.6,0,1,0.4,1,1v12.8&#10;&#9;&#9;&#9;&#9;&#9;&#9;C1000.5,783.9,1000,784.3,999.5,784.3z M987.7,782.3h10.8v-10.8h-10.8V782.3z"/>
					<path fill="#7C7C7B" d="M1018.7,784.3h-12.8c-0.6,0-1-0.4-1-1v-12.8c0-0.6,0.4-1,1-1h12.8c0.6,0,1,0.4,1,1v12.8&#10;&#9;&#9;&#9;&#9;&#9;&#9;C1019.7,783.9,1019.2,784.3,1018.7,784.3z M1006.9,782.3h10.8v-10.8h-10.8V782.3z"/>
				</g>
			</g><path fill="#7C7C7B" d="M896.2,802.3c-0.3,0-0.5-0.1-0.7-0.3c-0.2-0.2-0.3-0.4-0.3-0.7l-0.2-48.9c0-0.3,0.1-0.5,0.3-0.7&#10;&#9;&#9;&#9;&#9;c0.2-0.2,0.4-0.3,0.7-0.3l23.5-0.1c0,0,0,0,0,0c0.6,0,1,0.4,1,1l0.2,48.9c0,0.6-0.4,1-1,1L896.2,802.3&#10;&#9;&#9;&#9;&#9;C896.2,802.3,896.2,802.3,896.2,802.3z M897,753.4l0.2,46.9l21.5-0.1l-0.2-46.9L897,753.4z" transform="matrix(0.9999999999999999, 0, 0, 0.9999999999999999, -1.1368683772161603e-13, 0)"/><g transform="matrix(0.9999999999999999, 0, 0, 0.9999999999999999, -1.1368683772161603e-13, 0)">
				<g>
					<path fill="#7C7C7B" d="M961.9,863.5h-12.8c-0.6,0-1-0.4-1-1v-12.8c0-0.6,0.4-1,1-1h12.8c0.6,0,1,0.4,1,1v12.8&#10;&#9;&#9;&#9;&#9;&#9;&#9;C962.9,863.1,962.4,863.5,961.9,863.5z M950.1,861.5h10.8v-10.8h-10.8V861.5z"/>
					<path fill="#7C7C7B" d="M981,863.5h-12.8c-0.6,0-1-0.4-1-1v-12.8c0-0.6,0.4-1,1-1H981c0.6,0,1,0.4,1,1v12.8&#10;&#9;&#9;&#9;&#9;&#9;&#9;C982,863.1,981.6,863.5,981,863.5z M969.3,861.5H980v-10.8h-10.8V861.5z"/>
					<path fill="#7C7C7B" d="M961.9,881.7h-12.8c-0.6,0-1-0.4-1-1V868c0-0.6,0.4-1,1-1h12.8c0.6,0,1,0.4,1,1v12.8&#10;&#9;&#9;&#9;&#9;&#9;&#9;C962.9,881.3,962.4,881.7,961.9,881.7z M950.1,879.7h10.8V869h-10.8V879.7z"/>
					<path fill="#7C7C7B" d="M981,881.7h-12.8c-0.6,0-1-0.4-1-1V868c0-0.6,0.4-1,1-1H981c0.6,0,1,0.4,1,1v12.8&#10;&#9;&#9;&#9;&#9;&#9;&#9;C982,881.3,981.6,881.7,981,881.7z M969.3,879.7H980V869h-10.8V879.7z"/>
				</g>
				<g>
					<path fill="#7C7C7B" d="M999.5,863.5h-12.8c-0.6,0-1-0.4-1-1v-12.8c0-0.6,0.4-1,1-1h12.8c0.6,0,1,0.4,1,1v12.8&#10;&#9;&#9;&#9;&#9;&#9;&#9;C1000.5,863.1,1000,863.5,999.5,863.5z M987.7,861.5h10.8v-10.8h-10.8V861.5z"/>
					<path fill="#7C7C7B" d="M1018.7,863.5h-12.8c-0.6,0-1-0.4-1-1v-12.8c0-0.6,0.4-1,1-1h12.8c0.6,0,1,0.4,1,1v12.8&#10;&#9;&#9;&#9;&#9;&#9;&#9;C1019.7,863.1,1019.2,863.5,1018.7,863.5z M1006.9,861.5h10.8v-10.8h-10.8V861.5z"/>
					<path fill="#7C7C7B" d="M999.5,881.7h-12.8c-0.6,0-1-0.4-1-1V868c0-0.6,0.4-1,1-1h12.8c0.6,0,1,0.4,1,1v12.8&#10;&#9;&#9;&#9;&#9;&#9;&#9;C1000.5,881.3,1000,881.7,999.5,881.7z M987.7,879.7h10.8V869h-10.8V879.7z"/>
					<path fill="#7C7C7B" d="M1018.7,881.7h-12.8c-0.6,0-1-0.4-1-1V868c0-0.6,0.4-1,1-1h12.8c0.6,0,1,0.4,1,1v12.8&#10;&#9;&#9;&#9;&#9;&#9;&#9;C1019.7,881.3,1019.2,881.7,1018.7,881.7z M1006.9,879.7h10.8V869h-10.8V879.7z"/>
				</g>
			</g><path fill="#7C7C7B" d="M896.2,899.7c-0.6,0-1-0.4-1-1l-0.2-48.9c0-0.3,0.1-0.5,0.3-0.7c0.2-0.2,0.4-0.3,0.7-0.3l23.5-0.1&#10;&#9;&#9;&#9;&#9;c0,0,0,0,0,0c0.6,0,1,0.4,1,1l0.2,48.9c0,0.3-0.1,0.5-0.3,0.7c-0.2,0.2-0.4,0.3-0.7,0.3L896.2,899.7&#10;&#9;&#9;&#9;&#9;C896.2,899.7,896.2,899.7,896.2,899.7z M897,850.8l0.2,46.9l21.5-0.1l-0.2-46.9L897,850.8z" transform="matrix(0.9999999999999999, 0, 0, 0.9999999999999999, -1.1368683772161603e-13, 0)"/><path fill="#7C7C7B" d="M1211.6,899.2h-138.2c-0.6,0-1-0.4-1-1V624c0-0.6,0.4-1,1-1h138.2c0.6,0,1,0.4,1,1v274.2&#10;&#9;&#9;&#9;C1212.6,898.8,1212.2,899.2,1211.6,899.2z M1074.4,897.2h136.2V625h-136.2V897.2z" transform="matrix(0.9999999999999999, 0, 0, 0.9999999999999999, -8.526512829121202e-14, 0)"/><path fill="#7C7C7B" d="M1189.6,665.8h-94.1c-4,0-7.2-3.2-7.2-7.2c0-4,3.2-7.2,7.2-7.2h94.1c4,0,7.2,3.2,7.2,7.2&#10;&#9;&#9;&#9;&#9;C1196.8,662.6,1193.5,665.8,1189.6,665.8z M1095.5,653.4c-2.9,0-5.2,2.3-5.2,5.2s2.3,5.2,5.2,5.2h94.1c2.9,0,5.2-2.3,5.2-5.2&#10;&#9;&#9;&#9;&#9;s-2.3-5.2-5.2-5.2H1095.5z" transform="matrix(0.9999999999999999, 0, 0, 0.9999999999999999, -1.1368683772161603e-13, 0)"/><path fill="#7C7C7B" d="M1189.6,690.2h-94.1c-4,0-7.2-3.2-7.2-7.2s3.2-7.2,7.2-7.2h94.1c4,0,7.2,3.2,7.2,7.2&#10;&#9;&#9;&#9;&#9;S1193.5,690.2,1189.6,690.2z M1095.5,677.8c-2.9,0-5.2,2.3-5.2,5.2s2.3,5.2,5.2,5.2h94.1c2.9,0,5.2-2.3,5.2-5.2s-2.3-5.2-5.2-5.2&#10;&#9;&#9;&#9;&#9;H1095.5z" transform="matrix(0.9999999999999999, 0, 0, 0.9999999999999999, -1.1368683772161603e-13, 0)"/><path fill="#7C7C7B" d="M1189.6,714.5h-94.1c-4,0-7.2-3.2-7.2-7.2c0-4,3.2-7.2,7.2-7.2h94.1c4,0,7.2,3.2,7.2,7.2&#10;&#9;&#9;&#9;&#9;C1196.8,711.3,1193.5,714.5,1189.6,714.5z M1095.5,702.1c-2.9,0-5.2,2.3-5.2,5.2s2.3,5.2,5.2,5.2h94.1c2.9,0,5.2-2.3,5.2-5.2&#10;&#9;&#9;&#9;&#9;s-2.3-5.2-5.2-5.2H1095.5z" transform="matrix(0.9999999999999999, 0, 0, 0.9999999999999999, -1.1368683772161603e-13, 0)"/><path fill="#7C7C7B" d="M1189.6,738.9h-94.1c-4,0-7.2-3.2-7.2-7.2c0-4,3.2-7.2,7.2-7.2h94.1c4,0,7.2,3.2,7.2,7.2&#10;&#9;&#9;&#9;&#9;C1196.8,735.7,1193.5,738.9,1189.6,738.9z M1095.5,726.5c-2.9,0-5.2,2.3-5.2,5.2s2.3,5.2,5.2,5.2h94.1c2.9,0,5.2-2.3,5.2-5.2&#10;&#9;&#9;&#9;&#9;s-2.3-5.2-5.2-5.2H1095.5z" transform="matrix(0.9999999999999999, 0, 0, 0.9999999999999999, -1.1368683772161603e-13, 0)"/><path fill="#7C7C7B" d="M1189.6,763.3h-94.1c-4,0-7.2-3.2-7.2-7.2s3.2-7.2,7.2-7.2h94.1c4,0,7.2,3.2,7.2,7.2&#10;&#9;&#9;&#9;&#9;S1193.5,763.3,1189.6,763.3z M1095.5,750.8c-2.9,0-5.2,2.3-5.2,5.2s2.3,5.2,5.2,5.2h94.1c2.9,0,5.2-2.3,5.2-5.2s-2.3-5.2-5.2-5.2&#10;&#9;&#9;&#9;&#9;H1095.5z" transform="matrix(0.9999999999999999, 0, 0, 0.9999999999999999, -1.1368683772161603e-13, 0)"/><path fill="#7C7C7B" d="M1189.6,787.6h-94.1c-4,0-7.2-3.2-7.2-7.2c0-4,3.2-7.2,7.2-7.2h94.1c4,0,7.2,3.2,7.2,7.2&#10;&#9;&#9;&#9;&#9;C1196.8,784.4,1193.5,787.6,1189.6,787.6z M1095.5,775.2c-2.9,0-5.2,2.3-5.2,5.2s2.3,5.2,5.2,5.2h94.1c2.9,0,5.2-2.3,5.2-5.2&#10;&#9;&#9;&#9;&#9;s-2.3-5.2-5.2-5.2H1095.5z" transform="matrix(0.9999999999999999, 0, 0, 0.9999999999999999, -1.1368683772161603e-13, 0)"/><path fill="#7C7C7B" d="M1189.6,812h-94.1c-4,0-7.2-3.2-7.2-7.2c0-4,3.2-7.2,7.2-7.2h94.1c4,0,7.2,3.2,7.2,7.2&#10;&#9;&#9;&#9;&#9;C1196.8,808.7,1193.5,812,1189.6,812z M1095.5,799.5c-2.9,0-5.2,2.3-5.2,5.2s2.3,5.2,5.2,5.2h94.1c2.9,0,5.2-2.3,5.2-5.2&#10;&#9;&#9;&#9;&#9;s-2.3-5.2-5.2-5.2H1095.5z" transform="matrix(0.9999999999999999, 0, 0, 0.9999999999999999, -1.1368683772161603e-13, 0)"/><path fill="#7C7C7B" d="M1189.6,836.3h-94.1c-4,0-7.2-3.2-7.2-7.2s3.2-7.2,7.2-7.2h94.1c4,0,7.2,3.2,7.2,7.2&#10;&#9;&#9;&#9;&#9;S1193.5,836.3,1189.6,836.3z M1095.5,823.9c-2.9,0-5.2,2.3-5.2,5.2s2.3,5.2,5.2,5.2h94.1c2.9,0,5.2-2.3,5.2-5.2s-2.3-5.2-5.2-5.2&#10;&#9;&#9;&#9;&#9;H1095.5z" transform="matrix(0.9999999999999999, 0, 0, 0.9999999999999999, -1.1368683772161603e-13, 0)"/><path fill="#7C7C7B" d="M1189.6,860.7h-94.1c-4,0-7.2-3.2-7.2-7.2c0-4,3.2-7.2,7.2-7.2h94.1c4,0,7.2,3.2,7.2,7.2&#10;&#9;&#9;&#9;&#9;C1196.8,857.5,1193.5,860.7,1189.6,860.7z M1095.5,848.3c-2.9,0-5.2,2.3-5.2,5.2s2.3,5.2,5.2,5.2h94.1c2.9,0,5.2-2.3,5.2-5.2&#10;&#9;&#9;&#9;&#9;s-2.3-5.2-5.2-5.2H1095.5z" transform="matrix(0.9999999999999999, 0, 0, 0.9999999999999999, -1.1368683772161603e-13, 0)"/><path fill="#7C7C7B" d="M1189.6,885h-94.1c-4,0-7.2-3.2-7.2-7.2c0-4,3.2-7.2,7.2-7.2h94.1c4,0,7.2,3.2,7.2,7.2&#10;&#9;&#9;&#9;&#9;C1196.8,881.8,1193.5,885,1189.6,885z M1095.5,872.6c-2.9,0-5.2,2.3-5.2,5.2s2.3,5.2,5.2,5.2h94.1c2.9,0,5.2-2.3,5.2-5.2&#10;&#9;&#9;&#9;&#9;s-2.3-5.2-5.2-5.2H1095.5z" transform="matrix(0.9999999999999999, 0, 0, 0.9999999999999999, -1.1368683772161603e-13, 0)"/><path fill="#7C7C7B" d="M1211.6,625h-138.2c-0.4,0-0.7-0.2-0.9-0.6c-0.2-0.4-0.1-0.8,0.1-1.1l64.4-75.9V438.5c0-3,2.4-5.4,5.4-5.4&#10;&#9;&#9;&#9;s5.4,2.4,5.4,5.4v108.9l64.4,75.9c0.3,0.3,0.3,0.7,0.1,1.1C1212.4,624.8,1212,625,1211.6,625z M1075.6,623h133.9l-63.3-74.5&#10;&#9;&#9;&#9;c-0.2-0.2-0.2-0.4-0.2-0.6V438.5c0-1.9-1.5-3.4-3.4-3.4c-1.9,0-3.4,1.5-3.4,3.4v109.3c0,0.2-0.1,0.5-0.2,0.6L1075.6,623z" transform="matrix(0.9999999999999999, 0, 0, 0.9999999999999999, -8.526512829121202e-14, 0)"/><g transform="matrix(0.9999999999999999, 0, 0, 0.9999999999999999, -1.1368683772161603e-13, 0)">
				<path fill="#7C7C7B" d="M319.5,900h-15.3c-0.6,0-1-0.4-1-1v-28.6c0-0.6,0.4-1,1-1h15.3c0.6,0,1,0.4,1,1V899&#10;&#9;&#9;&#9;&#9;&#9;C320.5,899.6,320,900,319.5,900z M305.2,898h13.3v-26.6h-13.3V898z"/>
				<g>
					<path fill="#7C7C7B" d="M335.9,879.7h-8.2c-0.6,0-1-0.4-1-1v-8.2c0-0.6,0.4-1,1-1h8.2c0.6,0,1,0.4,1,1v8.2&#10;&#9;&#9;&#9;&#9;&#9;&#9;C336.9,879.2,336.4,879.7,335.9,879.7z M328.7,877.7h6.2v-6.2h-6.2V877.7z"/>
					<path fill="#7C7C7B" d="M350.6,879.7h-8.2c-0.6,0-1-0.4-1-1v-8.2c0-0.6,0.4-1,1-1h8.2c0.6,0,1,0.4,1,1v8.2&#10;&#9;&#9;&#9;&#9;&#9;&#9;C351.6,879.2,351.2,879.7,350.6,879.7z M343.4,877.7h6.2v-6.2h-6.2V877.7z"/>
					<path fill="#7C7C7B" d="M365.4,879.7h-8.2c-0.6,0-1-0.4-1-1v-8.2c0-0.6,0.4-1,1-1h8.2c0.6,0,1,0.4,1,1v8.2&#10;&#9;&#9;&#9;&#9;&#9;&#9;C366.4,879.2,365.9,879.7,365.4,879.7z M358.2,877.7h6.2v-6.2h-6.2V877.7z"/>
				</g>
			</g><path fill="#7C7C7B" d="M397.1,900h-15.3c-0.6,0-1-0.4-1-1v-28.6c0-0.6,0.4-1,1-1h15.3c0.6,0,1,0.4,1,1V899&#10;&#9;&#9;&#9;&#9;&#9;C398.1,899.6,397.6,900,397.1,900z M382.8,898h13.3v-26.6h-13.3V898z" transform="matrix(0.9999999999999999, 0, 0, 0.9999999999999999, -1.4210854715202004e-13, 0)"/><path fill="#7C7C7B" d="M413.4,879.7h-8.2c-0.6,0-1-0.4-1-1v-8.2c0-0.6,0.4-1,1-1h8.2c0.6,0,1,0.4,1,1v8.2&#10;&#9;&#9;&#9;&#9;&#9;&#9;C414.4,879.2,414,879.7,413.4,879.7z M406.3,877.7h6.2v-6.2h-6.2V877.7z" transform="matrix(0.9999999999999999, 0, 0, 0.9999999999999999, -1.9895196601282805e-13, 0)"/><path fill="#7C7C7B" d="M428.2,879.7H420c-0.6,0-1-0.4-1-1v-8.2c0-0.6,0.4-1,1-1h8.2c0.6,0,1,0.4,1,1v8.2&#10;&#9;&#9;&#9;&#9;&#9;&#9;C429.2,879.2,428.8,879.7,428.2,879.7z M421,877.7h6.2v-6.2H421V877.7z" transform="matrix(0.9999999999999999, 0, 0, 0.9999999999999999, -1.9895196601282805e-13, 0)"/><path fill="#7C7C7B" d="M442.9,879.7h-8.2c-0.6,0-1-0.4-1-1v-8.2c0-0.6,0.4-1,1-1h8.2c0.6,0,1,0.4,1,1v8.2&#10;&#9;&#9;&#9;&#9;&#9;&#9;C443.9,879.2,443.5,879.7,442.9,879.7z M435.8,877.7h6.2v-6.2h-6.2V877.7z" transform="matrix(0.9999999999999999, 0, 0, 0.9999999999999999, -1.9895196601282805e-13, 0)"/><path fill="#7C7C7B" d="M131.2,859.9c-10.1,0-16.2-23.1-16.2-45.4s6-45.4,16.2-45.4s16.2,23.1,16.2,45.4S141.3,859.9,131.2,859.9z&#10;&#9;&#9;&#9; M131.2,771c-6.8,0-14.2,17.5-14.2,43.4s7.3,43.4,14.2,43.4c6.8,0,14.2-17.5,14.2-43.4S138,771,131.2,771z" transform="matrix(0.9999999999999999, 0, 0, 0.9999999999999999, -8.526512829121202e-14, 0)"/><path fill="#7C7C7B" d="M131.2,899.6c-0.6,0-1-0.4-1-1V798.5c0-0.6,0.4-1,1-1s1,0.4,1,1v100.2&#10;&#9;&#9;&#9;C132.2,899.2,131.8,899.6,131.2,899.6z" transform="matrix(0.9999999999999999, 0, 0, 0.9999999999999999, -8.526512829121202e-14, 0)"/><path fill="#7C7C7B" d="M169.3,859.9c-10.1,0-16.2-23.1-16.2-45.4s6-45.4,16.2-45.4s16.2,23.1,16.2,45.4S179.4,859.9,169.3,859.9z&#10;&#9;&#9;&#9; M169.3,771c-6.8,0-14.2,17.5-14.2,43.4s7.3,43.4,14.2,43.4c6.8,0,14.2-17.5,14.2-43.4S176.2,771,169.3,771z" transform="matrix(0.9999999999999999, 0, 0, 0.9999999999999999, -8.526512829121202e-14, 0)"/><path fill="#7C7C7B" d="M169.3,899.6c-0.6,0-1-0.4-1-1V798.5c0-0.6,0.4-1,1-1s1,0.4,1,1v100.2&#10;&#9;&#9;&#9;C170.3,899.2,169.9,899.6,169.3,899.6z" transform="matrix(0.9999999999999999, 0, 0, 0.9999999999999999, -8.526512829121202e-14, 0)"/><path d="M 1254.799975 822.400024 A 15.2 44.400002 0 0 1 1239.599976 866.800026 A 15.2 44.400002 0 0 1 1224.399976 822.400024 A 15.2 44.400002 0 0 1 1239.599976 778.000023 A 15.2 44.400002 0 0 1 1254.799975 822.400024 Z" fill="#ACE388" transform="matrix(0.9999999999999999, 0, 0, 0.9999999999999999, -8.526512829121202e-14, 0)"/><path fill="#7C7C7B" d="M1239.6,859.9c-10.1,0-16.2-23.1-16.2-45.4s6-45.4,16.2-45.4s16.2,23.1,16.2,45.4&#10;&#9;&#9;&#9;S1249.7,859.9,1239.6,859.9z M1239.6,771c-6.8,0-14.2,17.5-14.2,43.4s7.3,43.4,14.2,43.4s14.2-17.5,14.2-43.4&#10;&#9;&#9;&#9;S1246.4,771,1239.6,771z" transform="matrix(0.9999999999999999, 0, 0, 0.9999999999999999, -8.526512829121202e-14, 0)"/><path fill="#7C7C7B" d="M1239.6,899.6c-0.6,0-1-0.4-1-1V798.5c0-0.6,0.4-1,1-1s1,0.4,1,1v100.2&#10;&#9;&#9;&#9;C1240.6,899.2,1240.1,899.6,1239.6,899.6z" transform="matrix(0.9999999999999999, 0, 0, 0.9999999999999999, -8.526512829121202e-14, 0)"/><path d="M 702.999988 822.400024 A 15.2 44.400002 0 0 1 687.799988 866.800026 A 15.2 44.400002 0 0 1 672.599988 822.400024 A 15.2 44.400002 0 0 1 687.799988 778.000023 A 15.2 44.400002 0 0 1 702.999988 822.400024 Z" fill="#ACE388" transform="matrix(0.9999999999999999, 0, 0, 0.9999999999999999, -8.526512829121202e-14, 0)"/><path fill="#7C7C7B" d="M687.8,859.9c-10.1,0-16.2-23.1-16.2-45.4s6-45.4,16.2-45.4s16.2,23.1,16.2,45.4S697.9,859.9,687.8,859.9z&#10;&#9;&#9;&#9; M687.8,771c-6.8,0-14.2,17.5-14.2,43.4s7.3,43.4,14.2,43.4c6.8,0,14.2-17.5,14.2-43.4S694.6,771,687.8,771z" transform="matrix(0.9999999999999999, 0, 0, 0.9999999999999999, -8.526512829121202e-14, 0)"/><path fill="#7C7C7B" d="M687.8,899.6c-0.6,0-1-0.4-1-1V798.5c0-0.6,0.4-1,1-1s1,0.4,1,1v100.2&#10;&#9;&#9;&#9;C688.8,899.2,688.3,899.6,687.8,899.6z" transform="matrix(0.9999999999999999, 0, 0, 0.9999999999999999, -8.526512829121202e-14, 0)"/><path d="M 1292.899951 822.400024 A 15.2 44.400002 0 0 1 1277.699951 866.800026 A 15.2 44.400002 0 0 1 1262.499951 822.400024 A 15.2 44.400002 0 0 1 1277.699951 778.000023 A 15.2 44.400002 0 0 1 1292.899951 822.400024 Z" fill="#ACE388" transform="matrix(0.9999999999999999, 0, 0, 0.9999999999999999, -8.526512829121202e-14, 0)"/><path fill="#7C7C7B" d="M1277.7,859.9c-10.1,0-16.2-23.1-16.2-45.4s6-45.4,16.2-45.4s16.2,23.1,16.2,45.4&#10;&#9;&#9;&#9;S1287.8,859.9,1277.7,859.9z M1277.7,771c-6.8,0-14.2,17.5-14.2,43.4s7.3,43.4,14.2,43.4s14.2-17.5,14.2-43.4&#10;&#9;&#9;&#9;S1284.5,771,1277.7,771z" transform="matrix(0.9999999999999999, 0, 0, 0.9999999999999999, -8.526512829121202e-14, 0)"/><path fill="#7C7C7B" d="M1277.7,899.6c-0.6,0-1-0.4-1-1V798.5c0-0.6,0.4-1,1-1s1,0.4,1,1v100.2&#10;&#9;&#9;&#9;C1278.7,899.2,1278.2,899.6,1277.7,899.6z" transform="matrix(0.9999999999999999, 0, 0, 0.9999999999999999, -8.526512829121202e-14, 0)"/><linearGradient id="SVGID_1_" gradientUnits="userSpaceOnUse" x1="797.4413" y1="249.3894" x2="515.6116" y2="531.2192">
			<stop offset="0" style="stop-color:#7764F7"/>
			<stop offset="0.3055" style="stop-color:#7041DC"/>
			<stop offset="0.7612" style="stop-color:#6612B8"/>
			<stop offset="0.9892" style="stop-color:#6200AA"/>
		</linearGradient>
</svg>